<svg width="640" height="273" viewBox="0 0 640 273" fill="none" xmlns="http://www.w3.org/2000/svg">
<rect width="640" height="273" rx="15" fill="white"/>
<path d="M279.25 77.5L242.625 152H222.5L271.125 61H284L279.25 77.5ZM286.5 152L275.375 75.5625L276.062 61H288.125L305.312 152H286.5ZM291.125 118.125L288.562 132.812H241.75L244.312 118.125H291.125ZM382.5 136.75L387.25 106.438C387.458 104.604 387.375 102.896 387 101.312C386.625 99.7292 385.854 98.4792 384.688 97.5625C383.562 96.6042 381.958 96.0833 379.875 96C378 95.9583 376.312 96.2917 374.812 97C373.354 97.6667 372.146 98.6458 371.188 99.9375C370.229 101.188 369.562 102.688 369.188 104.438L351.562 104.562C351.771 100.812 352.812 97.5833 354.688 94.875C356.604 92.125 359.021 89.875 361.938 88.125C364.854 86.375 368.021 85.0833 371.438 84.25C374.896 83.4167 378.271 83.0417 381.562 83.125C386.271 83.2083 390.458 84.1875 394.125 86.0625C397.833 87.9375 400.667 90.625 402.625 94.125C404.625 97.5833 405.375 101.792 404.875 106.75L400.188 135.75C399.812 138.167 399.521 140.708 399.312 143.375C399.104 146 399.479 148.5 400.438 150.875L400.312 152L383.062 152.062C382.271 149.604 381.875 147.083 381.875 144.5C381.917 141.875 382.125 139.292 382.5 136.75ZM389.25 110.812L387.562 121L378.625 120.938C376.833 120.979 375.042 121.229 373.25 121.688C371.5 122.104 369.875 122.771 368.375 123.688C366.875 124.562 365.625 125.708 364.625 127.125C363.667 128.542 363.062 130.271 362.812 132.312C362.604 133.771 362.75 135.083 363.25 136.25C363.75 137.375 364.521 138.271 365.562 138.938C366.646 139.604 367.938 139.958 369.438 140C371.562 140.042 373.646 139.646 375.688 138.812C377.729 137.938 379.5 136.708 381 135.125C382.5 133.542 383.542 131.708 384.125 129.625L387.875 137.438C386.875 139.771 385.604 141.917 384.062 143.875C382.562 145.833 380.833 147.542 378.875 149C376.917 150.417 374.771 151.5 372.438 152.25C370.104 153.042 367.604 153.417 364.938 153.375C361.229 153.292 357.812 152.417 354.688 150.75C351.604 149.042 349.146 146.729 347.312 143.812C345.521 140.854 344.708 137.417 344.875 133.5C345.042 129.083 346.146 125.417 348.188 122.5C350.229 119.542 352.854 117.208 356.062 115.5C359.312 113.792 362.833 112.583 366.625 111.875C370.458 111.125 374.25 110.75 378 110.75L389.25 110.812Z" fill="black"/>
<path d="M93.6289 208.938L90.6758 226H87.2422L90.207 208.938H93.6289ZM98.7148 208.938L98.2344 211.691H84.7227L85.2031 208.938H98.7148ZM103.824 208L100.695 226H97.4023L100.531 208H103.824ZM101.434 219.215L100.578 219.227C100.664 218.508 100.832 217.781 101.082 217.047C101.34 216.312 101.688 215.645 102.125 215.043C102.562 214.434 103.098 213.949 103.73 213.59C104.371 213.223 105.113 213.051 105.957 213.074C106.668 213.09 107.258 213.234 107.727 213.508C108.203 213.773 108.574 214.137 108.84 214.598C109.105 215.051 109.281 215.57 109.367 216.156C109.453 216.734 109.461 217.344 109.391 217.984L108.055 226H104.738L106.098 217.949C106.145 217.535 106.133 217.164 106.062 216.836C106 216.5 105.848 216.234 105.605 216.039C105.371 215.836 105.023 215.73 104.562 215.723C104.055 215.707 103.617 215.797 103.25 215.992C102.891 216.188 102.586 216.457 102.336 216.801C102.086 217.137 101.891 217.516 101.75 217.938C101.609 218.352 101.504 218.777 101.434 219.215ZM116.469 226.234C115.602 226.219 114.82 226.055 114.125 225.742C113.43 225.422 112.848 224.984 112.379 224.43C111.918 223.875 111.578 223.23 111.359 222.496C111.141 221.762 111.062 220.973 111.125 220.129L111.172 219.648C111.266 218.766 111.48 217.926 111.816 217.129C112.152 216.332 112.602 215.629 113.164 215.02C113.727 214.402 114.391 213.922 115.156 213.578C115.93 213.227 116.789 213.062 117.734 213.086C118.617 213.102 119.371 213.281 119.996 213.625C120.621 213.969 121.125 214.43 121.508 215.008C121.891 215.586 122.152 216.246 122.293 216.988C122.434 217.723 122.461 218.492 122.375 219.297L122.188 220.703H112.391L112.754 218.453L119.223 218.465L119.281 218.172C119.344 217.742 119.324 217.344 119.223 216.977C119.121 216.602 118.93 216.301 118.648 216.074C118.367 215.848 117.992 215.727 117.523 215.711C116.984 215.695 116.531 215.809 116.164 216.051C115.797 216.293 115.496 216.613 115.262 217.012C115.027 217.41 114.848 217.844 114.723 218.312C114.598 218.773 114.508 219.219 114.453 219.648L114.406 220.117C114.367 220.531 114.379 220.945 114.441 221.359C114.504 221.766 114.625 222.133 114.805 222.461C114.992 222.789 115.246 223.055 115.566 223.258C115.895 223.461 116.305 223.57 116.797 223.586C117.422 223.602 117.996 223.48 118.52 223.223C119.051 222.957 119.527 222.605 119.949 222.168L121.426 223.949C121.074 224.48 120.625 224.918 120.078 225.262C119.539 225.598 118.957 225.844 118.332 226C117.707 226.164 117.086 226.242 116.469 226.234ZM135.418 230.875L138.055 215.723L138.852 213.32H141.781L138.734 230.875H135.418ZM129.582 219.871L129.605 219.625C129.699 218.836 129.875 218.051 130.133 217.27C130.398 216.488 130.758 215.777 131.211 215.137C131.672 214.496 132.238 213.988 132.91 213.613C133.59 213.23 134.387 213.055 135.301 213.086C136.105 213.109 136.766 213.324 137.281 213.73C137.797 214.129 138.199 214.648 138.488 215.289C138.777 215.922 138.973 216.602 139.074 217.328C139.184 218.055 139.223 218.75 139.191 219.414L139.133 219.965C139.008 220.676 138.801 221.402 138.512 222.145C138.223 222.887 137.844 223.574 137.375 224.207C136.906 224.832 136.352 225.336 135.711 225.719C135.07 226.094 134.34 226.27 133.52 226.246C132.676 226.223 131.977 226.016 131.422 225.625C130.875 225.227 130.453 224.711 130.156 224.078C129.867 223.445 129.68 222.762 129.594 222.027C129.508 221.293 129.504 220.574 129.582 219.871ZM132.922 219.613L132.898 219.859C132.859 220.203 132.836 220.586 132.828 221.008C132.828 221.422 132.871 221.824 132.957 222.215C133.051 222.605 133.219 222.934 133.461 223.199C133.711 223.457 134.07 223.594 134.539 223.609C135.156 223.633 135.676 223.496 136.098 223.199C136.527 222.902 136.867 222.512 137.117 222.027C137.375 221.535 137.555 221.02 137.656 220.48L137.879 218.934C137.91 218.566 137.91 218.199 137.879 217.832C137.848 217.457 137.762 217.113 137.621 216.801C137.488 216.48 137.285 216.223 137.012 216.027C136.738 215.832 136.379 215.727 135.934 215.711C135.418 215.695 134.977 215.809 134.609 216.051C134.25 216.293 133.953 216.613 133.719 217.012C133.492 217.402 133.312 217.828 133.18 218.289C133.055 218.75 132.969 219.191 132.922 219.613ZM149.961 222.789L151.602 213.32H154.906L152.703 226H149.609L149.961 222.789ZM150.711 220.352L151.66 220.328C151.574 221.07 151.41 221.797 151.168 222.508C150.926 223.219 150.594 223.859 150.172 224.43C149.75 225 149.227 225.449 148.602 225.777C147.977 226.105 147.238 226.262 146.387 226.246C145.691 226.23 145.105 226.098 144.629 225.848C144.152 225.59 143.773 225.246 143.492 224.816C143.211 224.379 143.02 223.879 142.918 223.316C142.824 222.754 142.809 222.152 142.871 221.512L144.242 213.32H147.535L146.152 221.559C146.129 221.824 146.129 222.078 146.152 222.32C146.176 222.555 146.238 222.766 146.34 222.953C146.441 223.141 146.586 223.293 146.773 223.41C146.961 223.52 147.211 223.578 147.523 223.586C148.188 223.609 148.738 223.477 149.176 223.188C149.613 222.891 149.953 222.492 150.195 221.992C150.445 221.492 150.617 220.945 150.711 220.352ZM160.859 213.32L158.668 226H155.363L157.566 213.32H160.859ZM157.93 210.074C157.914 209.543 158.086 209.117 158.445 208.797C158.812 208.477 159.254 208.312 159.77 208.305C160.262 208.297 160.691 208.445 161.059 208.75C161.426 209.047 161.609 209.449 161.609 209.957C161.625 210.488 161.449 210.914 161.082 211.234C160.715 211.555 160.277 211.719 159.77 211.727C159.277 211.734 158.848 211.59 158.48 211.293C158.121 210.996 157.938 210.59 157.93 210.074ZM166.906 223.609C167.32 223.617 167.688 223.539 168.008 223.375C168.336 223.211 168.605 222.98 168.816 222.684C169.027 222.387 169.168 222.043 169.238 221.652L172.344 221.641C172.273 222.586 171.969 223.406 171.43 224.102C170.898 224.797 170.223 225.332 169.402 225.707C168.59 226.082 167.727 226.258 166.812 226.234C165.898 226.219 165.113 226.035 164.457 225.684C163.809 225.332 163.285 224.863 162.887 224.277C162.488 223.684 162.207 223.008 162.043 222.25C161.887 221.492 161.848 220.695 161.926 219.859L161.961 219.508C162.055 218.633 162.266 217.805 162.594 217.023C162.922 216.234 163.359 215.543 163.906 214.949C164.461 214.348 165.113 213.883 165.863 213.555C166.613 213.219 167.461 213.062 168.406 213.086C169.383 213.102 170.219 213.324 170.914 213.754C171.609 214.176 172.137 214.754 172.496 215.488C172.863 216.223 173.039 217.066 173.023 218.02L169.93 218.008C169.938 217.625 169.887 217.262 169.777 216.918C169.668 216.566 169.48 216.285 169.215 216.074C168.957 215.855 168.605 215.734 168.16 215.711C167.637 215.695 167.199 215.805 166.848 216.039C166.496 216.266 166.211 216.574 165.992 216.965C165.773 217.348 165.605 217.766 165.488 218.219C165.371 218.664 165.289 219.098 165.242 219.52L165.219 219.859C165.18 220.211 165.156 220.602 165.148 221.031C165.141 221.453 165.184 221.859 165.277 222.25C165.371 222.633 165.543 222.953 165.793 223.211C166.051 223.461 166.422 223.594 166.906 223.609ZM179.914 207.988L176.785 226H173.492L176.621 207.988H179.914ZM186.863 213.32L180.43 219.613L176.984 222.637L176.164 220L178.871 217.105L182.668 213.32H186.863ZM181.215 226L178.531 220L181.027 218.078L184.848 226H181.215ZM194.961 208H198.266L195.605 223.281L194.82 226H191.832L194.961 208ZM204.031 219.461L204.008 219.719C203.906 220.5 203.727 221.281 203.469 222.062C203.219 222.844 202.867 223.555 202.414 224.195C201.969 224.828 201.41 225.336 200.738 225.719C200.074 226.094 199.285 226.27 198.371 226.246C197.566 226.223 196.902 226.012 196.379 225.613C195.855 225.207 195.449 224.691 195.16 224.066C194.871 223.434 194.676 222.758 194.574 222.039C194.473 221.312 194.434 220.617 194.457 219.953L194.516 219.402C194.641 218.699 194.848 217.973 195.137 217.223C195.426 216.473 195.797 215.781 196.25 215.148C196.711 214.516 197.258 214.008 197.891 213.625C198.531 213.234 199.266 213.051 200.094 213.074C200.969 213.09 201.68 213.293 202.227 213.684C202.781 214.074 203.203 214.586 203.492 215.219C203.781 215.844 203.961 216.527 204.031 217.27C204.109 218.012 204.109 218.742 204.031 219.461ZM200.715 219.707L200.727 219.449C200.766 219.098 200.789 218.711 200.797 218.289C200.812 217.867 200.777 217.465 200.691 217.082C200.605 216.699 200.438 216.383 200.188 216.133C199.938 215.875 199.57 215.738 199.086 215.723C198.609 215.699 198.191 215.773 197.832 215.945C197.48 216.117 197.18 216.355 196.93 216.66C196.68 216.965 196.477 217.312 196.32 217.703C196.164 218.086 196.051 218.484 195.98 218.898L195.758 220.445C195.727 220.938 195.754 221.422 195.84 221.898C195.926 222.375 196.117 222.773 196.414 223.094C196.719 223.406 197.164 223.57 197.75 223.586C198.289 223.609 198.738 223.504 199.098 223.27C199.457 223.027 199.746 222.711 199.965 222.32C200.184 221.93 200.348 221.504 200.457 221.043C200.574 220.574 200.66 220.129 200.715 219.707ZM209.926 216.262L208.238 226H204.945L207.148 213.32H210.242L209.926 216.262ZM214.062 213.215L213.652 216.367C213.465 216.336 213.273 216.309 213.078 216.285C212.891 216.262 212.699 216.246 212.504 216.238C212.051 216.23 211.641 216.289 211.273 216.414C210.906 216.539 210.586 216.723 210.312 216.965C210.047 217.199 209.82 217.488 209.633 217.832C209.453 218.176 209.316 218.562 209.223 218.992L208.578 218.781C208.656 218.18 208.785 217.547 208.965 216.883C209.152 216.211 209.41 215.586 209.738 215.008C210.074 214.422 210.5 213.949 211.016 213.59C211.539 213.223 212.176 213.043 212.926 213.051C213.121 213.051 213.309 213.066 213.488 213.098C213.676 213.129 213.867 213.168 214.062 213.215ZM213.699 219.859L213.734 219.613C213.828 218.715 214.043 217.871 214.379 217.082C214.723 216.285 215.176 215.586 215.738 214.984C216.309 214.375 216.977 213.902 217.742 213.566C218.516 213.223 219.383 213.062 220.344 213.086C221.258 213.102 222.047 213.285 222.711 213.637C223.375 213.988 223.918 214.461 224.34 215.055C224.77 215.648 225.07 216.328 225.242 217.094C225.422 217.859 225.473 218.668 225.395 219.52L225.371 219.777C225.27 220.668 225.043 221.508 224.691 222.297C224.348 223.078 223.891 223.77 223.32 224.371C222.758 224.965 222.09 225.43 221.316 225.766C220.543 226.102 219.684 226.258 218.738 226.234C217.84 226.219 217.055 226.039 216.383 225.695C215.711 225.344 215.164 224.875 214.742 224.289C214.32 223.695 214.023 223.02 213.852 222.262C213.68 221.504 213.629 220.703 213.699 219.859ZM217.027 219.613L217.004 219.871C216.965 220.246 216.953 220.648 216.969 221.078C216.984 221.5 217.051 221.902 217.168 222.285C217.293 222.668 217.496 222.98 217.777 223.223C218.059 223.465 218.445 223.594 218.938 223.609C219.461 223.625 219.91 223.52 220.285 223.293C220.66 223.066 220.969 222.762 221.211 222.379C221.453 221.988 221.645 221.566 221.785 221.113C221.926 220.652 222.02 220.203 222.066 219.766L222.09 219.52C222.121 219.145 222.129 218.742 222.113 218.312C222.105 217.875 222.039 217.465 221.914 217.082C221.789 216.691 221.586 216.371 221.305 216.121C221.023 215.871 220.637 215.738 220.145 215.723C219.621 215.699 219.172 215.809 218.797 216.051C218.422 216.285 218.113 216.598 217.871 216.988C217.629 217.379 217.438 217.805 217.297 218.266C217.164 218.727 217.074 219.176 217.027 219.613ZM230.375 222.555L234.5 213.32H236.668L235.309 217.164L231.266 226H229.438L230.375 222.555ZM230.68 213.32L230.879 222.883L230.492 226H228.5L227.562 213.32H230.68ZM237.395 222.391L240.723 213.32H243.98L238.672 226H236.562L237.395 222.391ZM236.879 213.32L237.828 222.824L237.605 226H235.906L234.887 216.871V213.32H236.879ZM248.281 216.215L246.582 226H243.277L245.48 213.32H248.574L248.281 216.215ZM247.309 219.215L246.488 219.238C246.574 218.48 246.746 217.73 247.004 216.988C247.262 216.246 247.613 215.578 248.059 214.984C248.512 214.383 249.062 213.91 249.711 213.566C250.367 213.223 251.129 213.059 251.996 213.074C252.699 213.098 253.277 213.246 253.73 213.52C254.191 213.785 254.543 214.145 254.785 214.598C255.035 215.051 255.195 215.562 255.266 216.133C255.344 216.703 255.352 217.297 255.289 217.914L253.93 226H250.613L251.984 217.879C252.031 217.465 252.02 217.098 251.949 216.777C251.879 216.457 251.723 216.203 251.48 216.016C251.246 215.828 250.902 215.73 250.449 215.723C249.949 215.707 249.516 215.801 249.148 216.004C248.789 216.207 248.484 216.48 248.234 216.824C247.984 217.168 247.785 217.547 247.637 217.961C247.488 218.375 247.379 218.793 247.309 219.215ZM266.504 226H263.199L265.543 212.195C265.668 211.266 265.949 210.465 266.387 209.793C266.832 209.121 267.414 208.605 268.133 208.246C268.852 207.879 269.688 207.703 270.641 207.719C270.945 207.727 271.246 207.754 271.543 207.801C271.848 207.848 272.145 207.902 272.434 207.965L272.152 210.52C271.996 210.48 271.832 210.449 271.66 210.426C271.496 210.402 271.332 210.387 271.168 210.379C270.77 210.379 270.41 210.449 270.09 210.59C269.777 210.73 269.516 210.934 269.305 211.199C269.102 211.465 268.961 211.797 268.883 212.195L266.504 226ZM271.168 213.32L270.746 215.711H263.152L263.574 213.32H271.168ZM271.238 219.859L271.273 219.613C271.367 218.715 271.582 217.871 271.918 217.082C272.262 216.285 272.715 215.586 273.277 214.984C273.848 214.375 274.516 213.902 275.281 213.566C276.055 213.223 276.922 213.062 277.883 213.086C278.797 213.102 279.586 213.285 280.25 213.637C280.914 213.988 281.457 214.461 281.879 215.055C282.309 215.648 282.609 216.328 282.781 217.094C282.961 217.859 283.012 218.668 282.934 219.52L282.91 219.777C282.809 220.668 282.582 221.508 282.23 222.297C281.887 223.078 281.43 223.77 280.859 224.371C280.297 224.965 279.629 225.43 278.855 225.766C278.082 226.102 277.223 226.258 276.277 226.234C275.379 226.219 274.594 226.039 273.922 225.695C273.25 225.344 272.703 224.875 272.281 224.289C271.859 223.695 271.562 223.02 271.391 222.262C271.219 221.504 271.168 220.703 271.238 219.859ZM274.566 219.613L274.543 219.871C274.504 220.246 274.492 220.648 274.508 221.078C274.523 221.5 274.59 221.902 274.707 222.285C274.832 222.668 275.035 222.98 275.316 223.223C275.598 223.465 275.984 223.594 276.477 223.609C277 223.625 277.449 223.52 277.824 223.293C278.199 223.066 278.508 222.762 278.75 222.379C278.992 221.988 279.184 221.566 279.324 221.113C279.465 220.652 279.559 220.203 279.605 219.766L279.629 219.52C279.66 219.145 279.668 218.742 279.652 218.312C279.645 217.875 279.578 217.465 279.453 217.082C279.328 216.691 279.125 216.371 278.844 216.121C278.562 215.871 278.176 215.738 277.684 215.723C277.16 215.699 276.711 215.809 276.336 216.051C275.961 216.285 275.652 216.598 275.41 216.988C275.168 217.379 274.977 217.805 274.836 218.266C274.703 218.727 274.613 219.176 274.566 219.613ZM288.242 213.32L289.648 217.152L292.344 213.32H296.012L291.453 219.672L294.02 226H290.668L289.086 221.945L286.262 226H282.57L287.328 219.367L284.867 213.32H288.242ZM303.699 213.32H307.016L304.73 226.762C304.613 227.652 304.352 228.43 303.945 229.094C303.539 229.758 302.996 230.27 302.316 230.629C301.637 230.988 300.832 231.164 299.902 231.156C299.605 231.148 299.309 231.125 299.012 231.086C298.715 231.047 298.422 230.996 298.133 230.934L298.414 228.332C298.586 228.371 298.762 228.402 298.941 228.426C299.113 228.457 299.285 228.473 299.457 228.473C299.824 228.48 300.141 228.414 300.406 228.273C300.672 228.133 300.891 227.934 301.062 227.676C301.227 227.418 301.34 227.113 301.402 226.762L303.699 213.32ZM304.027 210.074C304.012 209.551 304.188 209.129 304.555 208.809C304.922 208.48 305.355 208.312 305.855 208.305C306.355 208.297 306.789 208.445 307.156 208.75C307.523 209.047 307.707 209.449 307.707 209.957C307.715 210.488 307.535 210.914 307.168 211.234C306.809 211.555 306.375 211.719 305.867 211.727C305.375 211.727 304.945 211.582 304.578 211.293C304.219 210.996 304.035 210.59 304.027 210.074ZM315.219 222.789L316.859 213.32H320.164L317.961 226H314.867L315.219 222.789ZM315.969 220.352L316.918 220.328C316.832 221.07 316.668 221.797 316.426 222.508C316.184 223.219 315.852 223.859 315.43 224.43C315.008 225 314.484 225.449 313.859 225.777C313.234 226.105 312.496 226.262 311.645 226.246C310.949 226.23 310.363 226.098 309.887 225.848C309.41 225.59 309.031 225.246 308.75 224.816C308.469 224.379 308.277 223.879 308.176 223.316C308.082 222.754 308.066 222.152 308.129 221.512L309.5 213.32H312.793L311.41 221.559C311.387 221.824 311.387 222.078 311.41 222.32C311.434 222.555 311.496 222.766 311.598 222.953C311.699 223.141 311.844 223.293 312.031 223.41C312.219 223.52 312.469 223.578 312.781 223.586C313.445 223.609 313.996 223.477 314.434 223.188C314.871 222.891 315.211 222.492 315.453 221.992C315.703 221.492 315.875 220.945 315.969 220.352ZM325.438 216.133L323.738 226H320.434L322.637 213.32H325.719L325.438 216.133ZM324.488 219.215L323.609 219.227C323.703 218.461 323.875 217.707 324.125 216.965C324.383 216.223 324.734 215.555 325.18 214.961C325.633 214.367 326.188 213.898 326.844 213.555C327.5 213.211 328.266 213.051 329.141 213.074C329.789 213.09 330.328 213.223 330.758 213.473C331.188 213.723 331.527 214.055 331.777 214.469C332.027 214.883 332.191 215.355 332.27 215.887C332.355 216.418 332.371 216.969 332.316 217.539L330.91 226H327.617L328.965 217.902C329.012 217.512 329.008 217.152 328.953 216.824C328.898 216.496 328.762 216.234 328.543 216.039C328.324 215.836 327.992 215.727 327.547 215.711C327.062 215.695 326.641 215.793 326.281 216.004C325.922 216.207 325.621 216.48 325.379 216.824C325.145 217.168 324.953 217.551 324.805 217.973C324.656 218.387 324.551 218.801 324.488 219.215ZM331.883 218.828L330.699 218.992C330.785 218.242 330.957 217.516 331.215 216.812C331.473 216.102 331.824 215.461 332.27 214.891C332.715 214.32 333.258 213.871 333.898 213.543C334.539 213.215 335.281 213.059 336.125 213.074C336.82 213.098 337.398 213.242 337.859 213.508C338.32 213.773 338.676 214.133 338.926 214.586C339.184 215.039 339.352 215.551 339.43 216.121C339.508 216.684 339.516 217.277 339.453 217.902L338.094 226H334.789L336.148 217.891C336.195 217.5 336.191 217.145 336.137 216.824C336.082 216.496 335.945 216.234 335.727 216.039C335.516 215.836 335.188 215.73 334.742 215.723C334.297 215.707 333.906 215.789 333.57 215.969C333.242 216.141 332.965 216.379 332.738 216.684C332.512 216.98 332.328 217.316 332.188 217.691C332.047 218.066 331.945 218.445 331.883 218.828ZM345.664 215.945L343.074 230.875H339.77L342.816 213.32H345.863L345.664 215.945ZM352.812 219.449L352.777 219.695C352.684 220.461 352.504 221.234 352.238 222.016C351.98 222.797 351.625 223.512 351.172 224.16C350.719 224.801 350.16 225.316 349.496 225.707C348.832 226.09 348.051 226.27 347.152 226.246C346.363 226.223 345.707 226.016 345.184 225.625C344.66 225.234 344.25 224.734 343.953 224.125C343.656 223.508 343.449 222.844 343.332 222.133C343.215 221.422 343.168 220.742 343.191 220.094L343.273 219.438C343.391 218.727 343.594 217.996 343.883 217.246C344.172 216.488 344.547 215.793 345.008 215.16C345.469 214.52 346.02 214.008 346.66 213.625C347.301 213.234 348.039 213.051 348.875 213.074C349.742 213.098 350.449 213.305 350.996 213.695C351.551 214.086 351.973 214.594 352.262 215.219C352.551 215.844 352.73 216.527 352.801 217.27C352.879 218.004 352.883 218.73 352.812 219.449ZM349.484 219.684L349.52 219.438C349.551 219.094 349.566 218.715 349.566 218.301C349.566 217.879 349.52 217.477 349.426 217.094C349.332 216.711 349.16 216.391 348.91 216.133C348.66 215.875 348.301 215.738 347.832 215.723C347.355 215.699 346.938 215.773 346.578 215.945C346.219 216.117 345.914 216.359 345.664 216.672C345.422 216.977 345.223 217.324 345.066 217.715C344.91 218.105 344.797 218.508 344.727 218.922L344.492 220.562C344.453 221.039 344.484 221.512 344.586 221.98C344.688 222.441 344.887 222.824 345.184 223.129C345.488 223.434 345.926 223.594 346.496 223.609C347.012 223.617 347.449 223.5 347.809 223.258C348.168 223.016 348.461 222.695 348.688 222.297C348.922 221.891 349.102 221.457 349.227 220.996C349.352 220.535 349.438 220.098 349.484 219.684ZM361.074 222.426C361.137 222.051 361.043 221.762 360.793 221.559C360.543 221.348 360.234 221.188 359.867 221.078C359.508 220.969 359.195 220.883 358.93 220.82C358.461 220.695 357.988 220.539 357.512 220.352C357.043 220.156 356.617 219.914 356.234 219.625C355.852 219.336 355.547 218.984 355.32 218.57C355.094 218.148 354.992 217.652 355.016 217.082C355.039 216.402 355.211 215.812 355.531 215.312C355.859 214.805 356.281 214.387 356.797 214.059C357.312 213.723 357.875 213.473 358.484 213.309C359.094 213.145 359.699 213.07 360.301 213.086C361.145 213.094 361.926 213.25 362.645 213.555C363.371 213.859 363.957 214.312 364.402 214.914C364.855 215.516 365.082 216.266 365.082 217.164L361.812 217.152C361.82 216.809 361.766 216.508 361.648 216.25C361.531 215.992 361.352 215.793 361.109 215.652C360.867 215.512 360.559 215.441 360.184 215.441C359.887 215.441 359.59 215.5 359.293 215.617C359.004 215.727 358.754 215.891 358.543 216.109C358.332 216.328 358.199 216.598 358.145 216.918C358.098 217.184 358.137 217.402 358.262 217.574C358.387 217.746 358.555 217.887 358.766 217.996C358.977 218.098 359.199 218.184 359.434 218.254C359.668 218.316 359.879 218.367 360.066 218.406C360.754 218.586 361.426 218.816 362.082 219.098C362.738 219.379 363.273 219.773 363.688 220.281C364.102 220.781 364.293 221.449 364.262 222.285C364.238 222.996 364.051 223.605 363.699 224.113C363.348 224.613 362.895 225.023 362.34 225.344C361.793 225.656 361.199 225.883 360.559 226.023C359.926 226.172 359.305 226.242 358.695 226.234C357.844 226.219 357.043 226.047 356.293 225.719C355.551 225.391 354.949 224.914 354.488 224.289C354.027 223.656 353.793 222.883 353.785 221.969L356.879 221.98C356.887 222.387 356.969 222.73 357.125 223.012C357.281 223.293 357.504 223.508 357.793 223.656C358.09 223.797 358.441 223.867 358.848 223.867C359.168 223.875 359.484 223.832 359.797 223.738C360.117 223.645 360.395 223.492 360.629 223.281C360.863 223.062 361.012 222.777 361.074 222.426ZM372.184 219.859L372.219 219.613C372.312 218.715 372.527 217.871 372.863 217.082C373.207 216.285 373.66 215.586 374.223 214.984C374.793 214.375 375.461 213.902 376.227 213.566C377 213.223 377.867 213.062 378.828 213.086C379.742 213.102 380.531 213.285 381.195 213.637C381.859 213.988 382.402 214.461 382.824 215.055C383.254 215.648 383.555 216.328 383.727 217.094C383.906 217.859 383.957 218.668 383.879 219.52L383.855 219.777C383.754 220.668 383.527 221.508 383.176 222.297C382.832 223.078 382.375 223.77 381.805 224.371C381.242 224.965 380.574 225.43 379.801 225.766C379.027 226.102 378.168 226.258 377.223 226.234C376.324 226.219 375.539 226.039 374.867 225.695C374.195 225.344 373.648 224.875 373.227 224.289C372.805 223.695 372.508 223.02 372.336 222.262C372.164 221.504 372.113 220.703 372.184 219.859ZM375.512 219.613L375.488 219.871C375.449 220.246 375.438 220.648 375.453 221.078C375.469 221.5 375.535 221.902 375.652 222.285C375.777 222.668 375.98 222.98 376.262 223.223C376.543 223.465 376.93 223.594 377.422 223.609C377.945 223.625 378.395 223.52 378.77 223.293C379.145 223.066 379.453 222.762 379.695 222.379C379.938 221.988 380.129 221.566 380.27 221.113C380.41 220.652 380.504 220.203 380.551 219.766L380.574 219.52C380.605 219.145 380.613 218.742 380.598 218.312C380.59 217.875 380.523 217.465 380.398 217.082C380.273 216.691 380.07 216.371 379.789 216.121C379.508 215.871 379.121 215.738 378.629 215.723C378.105 215.699 377.656 215.809 377.281 216.051C376.906 216.285 376.598 216.598 376.355 216.988C376.113 217.379 375.922 217.805 375.781 218.266C375.648 218.727 375.559 219.176 375.512 219.613ZM389.27 223.398L393.547 213.32H397.086L390.945 226H388.801L389.27 223.398ZM388.953 213.32L390.113 223.715L389.809 226H387.77L385.59 213.32H388.953ZM402.148 226.234C401.281 226.219 400.5 226.055 399.805 225.742C399.109 225.422 398.527 224.984 398.059 224.43C397.598 223.875 397.258 223.23 397.039 222.496C396.82 221.762 396.742 220.973 396.805 220.129L396.852 219.648C396.945 218.766 397.16 217.926 397.496 217.129C397.832 216.332 398.281 215.629 398.844 215.02C399.406 214.402 400.07 213.922 400.836 213.578C401.609 213.227 402.469 213.062 403.414 213.086C404.297 213.102 405.051 213.281 405.676 213.625C406.301 213.969 406.805 214.43 407.188 215.008C407.57 215.586 407.832 216.246 407.973 216.988C408.113 217.723 408.141 218.492 408.055 219.297L407.867 220.703H398.07L398.434 218.453L404.902 218.465L404.961 218.172C405.023 217.742 405.004 217.344 404.902 216.977C404.801 216.602 404.609 216.301 404.328 216.074C404.047 215.848 403.672 215.727 403.203 215.711C402.664 215.695 402.211 215.809 401.844 216.051C401.477 216.293 401.176 216.613 400.941 217.012C400.707 217.41 400.527 217.844 400.402 218.312C400.277 218.773 400.188 219.219 400.133 219.648L400.086 220.117C400.047 220.531 400.059 220.945 400.121 221.359C400.184 221.766 400.305 222.133 400.484 222.461C400.672 222.789 400.926 223.055 401.246 223.258C401.574 223.461 401.984 223.57 402.477 223.586C403.102 223.602 403.676 223.48 404.199 223.223C404.73 222.957 405.207 222.605 405.629 222.168L407.105 223.949C406.754 224.48 406.305 224.918 405.758 225.262C405.219 225.598 404.637 225.844 404.012 226C403.387 226.164 402.766 226.242 402.148 226.234ZM413.762 216.262L412.074 226H408.781L410.984 213.32H414.078L413.762 216.262ZM417.898 213.215L417.488 216.367C417.301 216.336 417.109 216.309 416.914 216.285C416.727 216.262 416.535 216.246 416.34 216.238C415.887 216.23 415.477 216.289 415.109 216.414C414.742 216.539 414.422 216.723 414.148 216.965C413.883 217.199 413.656 217.488 413.469 217.832C413.289 218.176 413.152 218.562 413.059 218.992L412.414 218.781C412.492 218.18 412.621 217.547 412.801 216.883C412.988 216.211 413.246 215.586 413.574 215.008C413.91 214.422 414.336 213.949 414.852 213.59C415.375 213.223 416.012 213.043 416.762 213.051C416.957 213.051 417.145 213.066 417.324 213.098C417.512 213.129 417.703 213.168 417.898 213.215ZM431.469 213.32L431.047 215.711H423.863L424.285 213.32H431.469ZM426.605 210.191H429.898L427.836 222.203C427.805 222.477 427.805 222.711 427.836 222.906C427.875 223.094 427.965 223.238 428.105 223.34C428.246 223.441 428.465 223.5 428.762 223.516C428.926 223.523 429.09 223.52 429.254 223.504C429.418 223.48 429.586 223.457 429.758 223.434L429.523 225.953C429.211 226.047 428.895 226.113 428.574 226.152C428.262 226.199 427.941 226.223 427.613 226.223C426.863 226.207 426.246 226.043 425.762 225.73C425.285 225.418 424.941 224.988 424.73 224.441C424.527 223.887 424.461 223.246 424.531 222.52L426.605 210.191ZM437.434 208L434.305 226H431.012L434.141 208H437.434ZM435.043 219.215L434.188 219.227C434.273 218.508 434.441 217.781 434.691 217.047C434.949 216.312 435.297 215.645 435.734 215.043C436.172 214.434 436.707 213.949 437.34 213.59C437.98 213.223 438.723 213.051 439.566 213.074C440.277 213.09 440.867 213.234 441.336 213.508C441.812 213.773 442.184 214.137 442.449 214.598C442.715 215.051 442.891 215.57 442.977 216.156C443.062 216.734 443.07 217.344 443 217.984L441.664 226H438.348L439.707 217.949C439.754 217.535 439.742 217.164 439.672 216.836C439.609 216.5 439.457 216.234 439.215 216.039C438.98 215.836 438.633 215.73 438.172 215.723C437.664 215.707 437.227 215.797 436.859 215.992C436.5 216.188 436.195 216.457 435.945 216.801C435.695 217.137 435.5 217.516 435.359 217.938C435.219 218.352 435.113 218.777 435.043 219.215ZM450.078 226.234C449.211 226.219 448.43 226.055 447.734 225.742C447.039 225.422 446.457 224.984 445.988 224.43C445.527 223.875 445.188 223.23 444.969 222.496C444.75 221.762 444.672 220.973 444.734 220.129L444.781 219.648C444.875 218.766 445.09 217.926 445.426 217.129C445.762 216.332 446.211 215.629 446.773 215.02C447.336 214.402 448 213.922 448.766 213.578C449.539 213.227 450.398 213.062 451.344 213.086C452.227 213.102 452.98 213.281 453.605 213.625C454.23 213.969 454.734 214.43 455.117 215.008C455.5 215.586 455.762 216.246 455.902 216.988C456.043 217.723 456.07 218.492 455.984 219.297L455.797 220.703H446L446.363 218.453L452.832 218.465L452.891 218.172C452.953 217.742 452.934 217.344 452.832 216.977C452.73 216.602 452.539 216.301 452.258 216.074C451.977 215.848 451.602 215.727 451.133 215.711C450.594 215.695 450.141 215.809 449.773 216.051C449.406 216.293 449.105 216.613 448.871 217.012C448.637 217.41 448.457 217.844 448.332 218.312C448.207 218.773 448.117 219.219 448.062 219.648L448.016 220.117C447.977 220.531 447.988 220.945 448.051 221.359C448.113 221.766 448.234 222.133 448.414 222.461C448.602 222.789 448.855 223.055 449.176 223.258C449.504 223.461 449.914 223.57 450.406 223.586C451.031 223.602 451.605 223.48 452.129 223.223C452.66 222.957 453.137 222.605 453.559 222.168L455.035 223.949C454.684 224.48 454.234 224.918 453.688 225.262C453.148 225.598 452.566 225.844 451.941 226C451.316 226.164 450.695 226.242 450.078 226.234ZM469.215 208L466.098 226H462.793L465.91 208H469.215ZM475.953 223.141L476.844 217.457C476.883 217.113 476.867 216.793 476.797 216.496C476.727 216.199 476.582 215.965 476.363 215.793C476.152 215.613 475.852 215.516 475.461 215.5C475.109 215.492 474.793 215.555 474.512 215.688C474.238 215.812 474.012 215.996 473.832 216.238C473.652 216.473 473.527 216.754 473.457 217.082L470.152 217.105C470.191 216.402 470.387 215.797 470.738 215.289C471.098 214.773 471.551 214.352 472.098 214.023C472.645 213.695 473.238 213.453 473.879 213.297C474.527 213.141 475.16 213.07 475.777 213.086C476.66 213.102 477.445 213.285 478.133 213.637C478.828 213.988 479.359 214.492 479.727 215.148C480.102 215.797 480.242 216.586 480.148 217.516L479.27 222.953C479.199 223.406 479.145 223.883 479.105 224.383C479.066 224.875 479.137 225.344 479.316 225.789L479.293 226L476.059 226.012C475.91 225.551 475.836 225.078 475.836 224.594C475.844 224.102 475.883 223.617 475.953 223.141ZM477.219 218.277L476.902 220.188L475.227 220.176C474.891 220.184 474.555 220.23 474.219 220.316C473.891 220.395 473.586 220.52 473.305 220.691C473.023 220.855 472.789 221.07 472.602 221.336C472.422 221.602 472.309 221.926 472.262 222.309C472.223 222.582 472.25 222.828 472.344 223.047C472.438 223.258 472.582 223.426 472.777 223.551C472.98 223.676 473.223 223.742 473.504 223.75C473.902 223.758 474.293 223.684 474.676 223.527C475.059 223.363 475.391 223.133 475.672 222.836C475.953 222.539 476.148 222.195 476.258 221.805L476.961 223.27C476.773 223.707 476.535 224.109 476.246 224.477C475.965 224.844 475.641 225.164 475.273 225.438C474.906 225.703 474.504 225.906 474.066 226.047C473.629 226.195 473.16 226.266 472.66 226.258C471.965 226.242 471.324 226.078 470.738 225.766C470.16 225.445 469.699 225.012 469.355 224.465C469.02 223.91 468.867 223.266 468.898 222.531C468.93 221.703 469.137 221.016 469.52 220.469C469.902 219.914 470.395 219.477 470.996 219.156C471.605 218.836 472.266 218.609 472.977 218.477C473.695 218.336 474.406 218.266 475.109 218.266L477.219 218.277ZM491.516 223.363L491.059 226H481.695L482.152 223.363H491.516ZM492.711 215.418L483.137 226H480.816L481.191 223.844L490.719 213.32H493.074L492.711 215.418ZM491.914 213.32L491.457 215.969H482.738L483.207 213.32H491.914ZM497.035 224.395L502.168 213.32H505.801L498.371 227.922C498.152 228.383 497.902 228.809 497.621 229.199C497.348 229.598 497.035 229.941 496.684 230.23C496.34 230.527 495.945 230.754 495.5 230.91C495.062 231.074 494.57 231.156 494.023 231.156C493.75 231.156 493.484 231.133 493.227 231.086C492.969 231.039 492.711 230.984 492.453 230.922L492.688 228.426C492.773 228.434 492.859 228.441 492.945 228.449C493.023 228.457 493.102 228.461 493.18 228.461C493.57 228.469 493.914 228.422 494.211 228.32C494.516 228.227 494.781 228.07 495.008 227.852C495.234 227.641 495.438 227.363 495.617 227.02L497.035 224.395ZM497.562 213.32L498.664 222.684L498.512 226.094L496.309 226.352L494.141 213.32H497.562ZM518.516 223.047L521.117 208H524.434L521.316 226H518.352L518.516 223.047ZM511.297 219.906L511.32 219.648C511.422 218.875 511.602 218.094 511.859 217.305C512.125 216.516 512.484 215.797 512.938 215.148C513.398 214.5 513.965 213.984 514.637 213.602C515.309 213.219 516.105 213.043 517.027 213.074C517.816 213.105 518.469 213.328 518.984 213.742C519.5 214.148 519.898 214.676 520.18 215.324C520.469 215.965 520.664 216.648 520.766 217.375C520.875 218.094 520.918 218.777 520.895 219.426L520.836 219.988C520.711 220.684 520.5 221.402 520.203 222.145C519.914 222.879 519.535 223.562 519.066 224.195C518.605 224.82 518.055 225.324 517.414 225.707C516.781 226.09 516.059 226.27 515.246 226.246C514.395 226.223 513.695 226.016 513.148 225.625C512.609 225.227 512.191 224.715 511.895 224.09C511.598 223.465 511.406 222.785 511.32 222.051C511.234 221.316 511.227 220.602 511.297 219.906ZM514.637 219.637L514.613 219.883C514.582 220.219 514.562 220.598 514.555 221.02C514.555 221.434 514.598 221.836 514.684 222.227C514.777 222.609 514.945 222.93 515.188 223.188C515.438 223.438 515.797 223.574 516.266 223.598C516.859 223.621 517.371 223.484 517.801 223.188C518.23 222.883 518.574 222.492 518.832 222.016C519.098 221.539 519.273 221.039 519.359 220.516L519.582 218.957C519.621 218.598 519.621 218.234 519.582 217.867C519.543 217.5 519.453 217.156 519.312 216.836C519.18 216.516 518.977 216.254 518.703 216.051C518.438 215.848 518.09 215.742 517.66 215.734C517.137 215.711 516.691 215.824 516.324 216.074C515.965 216.316 515.672 216.637 515.445 217.035C515.219 217.426 515.039 217.852 514.906 218.312C514.781 218.773 514.691 219.215 514.637 219.637ZM524.41 219.859L524.445 219.613C524.539 218.715 524.754 217.871 525.09 217.082C525.434 216.285 525.887 215.586 526.449 214.984C527.02 214.375 527.688 213.902 528.453 213.566C529.227 213.223 530.094 213.062 531.055 213.086C531.969 213.102 532.758 213.285 533.422 213.637C534.086 213.988 534.629 214.461 535.051 215.055C535.48 215.648 535.781 216.328 535.953 217.094C536.133 217.859 536.184 218.668 536.105 219.52L536.082 219.777C535.98 220.668 535.754 221.508 535.402 222.297C535.059 223.078 534.602 223.77 534.031 224.371C533.469 224.965 532.801 225.43 532.027 225.766C531.254 226.102 530.395 226.258 529.449 226.234C528.551 226.219 527.766 226.039 527.094 225.695C526.422 225.344 525.875 224.875 525.453 224.289C525.031 223.695 524.734 223.02 524.562 222.262C524.391 221.504 524.34 220.703 524.41 219.859ZM527.738 219.613L527.715 219.871C527.676 220.246 527.664 220.648 527.68 221.078C527.695 221.5 527.762 221.902 527.879 222.285C528.004 222.668 528.207 222.98 528.488 223.223C528.77 223.465 529.156 223.594 529.648 223.609C530.172 223.625 530.621 223.52 530.996 223.293C531.371 223.066 531.68 222.762 531.922 222.379C532.164 221.988 532.355 221.566 532.496 221.113C532.637 220.652 532.73 220.203 532.777 219.766L532.801 219.52C532.832 219.145 532.84 218.742 532.824 218.312C532.816 217.875 532.75 217.465 532.625 217.082C532.5 216.691 532.297 216.371 532.016 216.121C531.734 215.871 531.348 215.738 530.855 215.723C530.332 215.699 529.883 215.809 529.508 216.051C529.133 216.285 528.824 216.598 528.582 216.988C528.34 217.379 528.148 217.805 528.008 218.266C527.875 218.727 527.785 219.176 527.738 219.613ZM546.945 213.32H549.969L547.871 225.566C547.715 226.73 547.328 227.723 546.711 228.543C546.094 229.363 545.309 229.984 544.355 230.406C543.41 230.828 542.359 231.027 541.203 231.004C540.641 230.988 540.086 230.902 539.539 230.746C538.992 230.59 538.48 230.359 538.004 230.055C537.527 229.758 537.113 229.387 536.762 228.941L538.391 226.996C538.734 227.449 539.141 227.801 539.609 228.051C540.078 228.309 540.598 228.445 541.168 228.461C541.777 228.477 542.316 228.367 542.785 228.133C543.254 227.898 543.641 227.566 543.945 227.137C544.25 226.707 544.453 226.195 544.555 225.602L546.172 216.086L546.945 213.32ZM537.582 219.895L537.617 219.648C537.711 218.852 537.898 218.062 538.18 217.281C538.461 216.492 538.84 215.777 539.316 215.137C539.793 214.496 540.375 213.988 541.062 213.613C541.75 213.238 542.551 213.062 543.465 213.086C544.309 213.109 544.992 213.32 545.516 213.719C546.039 214.109 546.438 214.621 546.711 215.254C546.984 215.879 547.164 216.559 547.25 217.293C547.344 218.027 547.375 218.742 547.344 219.438L547.285 219.988C547.16 220.691 546.953 221.414 546.664 222.156C546.375 222.898 546 223.586 545.539 224.219C545.078 224.844 544.523 225.344 543.875 225.719C543.234 226.094 542.504 226.27 541.684 226.246C540.832 226.223 540.125 226.016 539.562 225.625C539.008 225.234 538.57 224.73 538.25 224.113C537.938 223.488 537.73 222.809 537.629 222.074C537.527 221.332 537.512 220.605 537.582 219.895ZM540.922 219.637L540.887 219.895C540.848 220.246 540.832 220.633 540.84 221.055C540.855 221.469 540.918 221.867 541.027 222.25C541.145 222.633 541.336 222.949 541.602 223.199C541.867 223.441 542.234 223.57 542.703 223.586C543.32 223.617 543.848 223.488 544.285 223.199C544.73 222.91 545.086 222.527 545.352 222.051C545.617 221.566 545.801 221.055 545.902 220.516L546.125 218.957C546.156 218.582 546.152 218.207 546.113 217.832C546.074 217.457 545.98 217.113 545.832 216.801C545.691 216.488 545.48 216.234 545.199 216.039C544.926 215.844 544.562 215.742 544.109 215.734C543.586 215.711 543.133 215.82 542.75 216.062C542.375 216.305 542.062 216.625 541.812 217.023C541.562 217.414 541.363 217.84 541.215 218.301C541.066 218.762 540.969 219.207 540.922 219.637ZM550.742 224.43C550.734 223.898 550.91 223.461 551.27 223.117C551.637 222.773 552.082 222.602 552.605 222.602C553.105 222.594 553.535 222.75 553.895 223.07C554.262 223.383 554.449 223.797 554.457 224.312C554.465 224.844 554.285 225.281 553.918 225.625C553.559 225.969 553.117 226.141 552.594 226.141C552.094 226.148 551.66 225.996 551.293 225.684C550.934 225.363 550.75 224.945 550.742 224.43Z" fill="black"/>
</svg>
