<svg width="640" height="273" viewBox="0 0 640 273" fill="none" xmlns="http://www.w3.org/2000/svg">
<rect width="640" height="273" rx="15" fill="white"/>
<path d="M229.512 162V153.168C231.901 153.168 233.821 152.485 235.272 151.12C236.723 149.755 237.917 147.963 238.856 145.744C239.88 143.525 240.861 141.136 241.8 138.576L266.76 70.096H275.72L302.984 139.856C303.496 141.136 304.179 143.099 305.032 145.744C305.885 148.304 306.397 150.565 306.568 152.528C308.019 152.357 309.384 152.272 310.664 152.272C312.029 152.187 313.139 152.144 313.992 152.144V162H279.56V153.552C281.949 153.552 283.571 153.083 284.424 152.144C285.363 151.12 285.789 149.755 285.704 148.048C285.619 146.341 285.149 144.421 284.296 142.288L281.736 135.248L253.96 135.76L251.912 141.776C251.485 142.885 250.845 144.549 249.992 146.768C249.224 148.901 248.499 150.693 247.816 152.144C249.181 151.973 250.803 151.888 252.68 151.888C254.643 151.803 256.051 151.76 256.904 151.76V162H229.512ZM257.16 126.16H278.536L272.648 110.16C271.539 107.088 270.557 104.016 269.704 100.944C268.851 97.7867 268.211 95.0133 267.784 92.624H267.656C267.315 94.0747 266.803 96.2507 266.12 99.152C265.437 102.053 264.371 105.509 262.92 109.52L257.16 126.16ZM388.957 162C388.786 160.805 388.658 159.824 388.573 159.056C388.573 158.203 388.53 157.221 388.445 156.112C385.544 159.013 382.472 161.061 379.229 162.256C375.986 163.451 372.701 164.048 369.373 164.048C363.912 164.048 359.645 162.427 356.573 159.184C353.501 155.941 351.965 151.888 351.965 147.024C351.965 142.928 352.989 139.429 355.037 136.528C357.17 133.627 359.944 131.28 363.357 129.488C366.856 127.611 370.696 126.203 374.877 125.264C379.144 124.24 383.41 123.643 387.677 123.472V116.816C387.677 114.597 387.378 112.592 386.781 110.8C386.269 109.008 385.33 107.6 383.965 106.576C382.685 105.552 380.85 105.083 378.461 105.168C376.84 105.253 375.261 105.595 373.725 106.192C372.189 106.789 370.866 107.643 369.757 108.752C370.44 109.52 370.866 110.373 371.037 111.312C371.208 112.165 371.293 112.933 371.293 113.616C371.293 115.323 370.61 117.115 369.245 118.992C367.88 120.784 365.704 121.637 362.717 121.552C360.157 121.467 358.194 120.571 356.829 118.864C355.464 117.157 354.781 115.152 354.781 112.848C354.781 109.435 355.976 106.491 358.365 104.016C360.84 101.456 364.125 99.4933 368.221 98.128C372.317 96.6773 376.84 95.952 381.789 95.952C389.298 95.952 395.101 97.9147 399.197 101.84C403.378 105.68 405.469 111.867 405.469 120.4C405.469 123.301 405.469 125.776 405.469 127.824C405.469 129.872 405.426 131.92 405.341 133.968C405.341 136.016 405.341 138.491 405.341 141.392C405.341 142.587 405.298 144.293 405.213 146.512C405.128 148.645 405 150.693 404.829 152.656C406.28 152.485 407.816 152.4 409.437 152.4C411.058 152.315 412.296 152.272 413.149 152.272V162H388.957ZM387.549 132.56C385.16 132.816 382.898 133.243 380.765 133.84C378.632 134.437 376.754 135.248 375.133 136.272C373.597 137.296 372.36 138.533 371.421 139.984C370.568 141.435 370.141 143.056 370.141 144.848C370.226 147.237 370.994 148.944 372.445 149.968C373.896 150.992 375.56 151.504 377.437 151.504C379.4 151.504 381.234 151.077 382.941 150.224C384.648 149.371 386.184 148.261 387.549 146.896C387.549 146.043 387.549 145.232 387.549 144.464C387.549 143.611 387.549 142.757 387.549 141.904C387.549 140.368 387.549 138.832 387.549 137.296C387.549 135.675 387.549 134.096 387.549 132.56Z" fill="black"/>
<path d="M96.8 216.384C96.784 215.472 96.68 214.712 96.488 214.104C96.296 213.496 95.976 213.04 95.528 212.736C95.096 212.432 94.496 212.288 93.728 212.304H92L91.976 224.784C91.976 225.216 91.968 225.608 91.952 225.96C91.952 226.296 91.936 226.568 91.904 226.776C92.208 226.744 92.536 226.728 92.888 226.728C93.256 226.712 93.584 226.696 93.872 226.68V228H87.776V226.944C88.304 226.912 88.68 226.8 88.904 226.608C89.128 226.416 89.272 226.128 89.336 225.744C89.4 225.344 89.432 224.856 89.432 224.28V212.328L87.416 212.352C86.44 212.352 85.728 212.68 85.28 213.336C84.832 213.992 84.608 215.008 84.608 216.384H83.48L83.624 211.2H97.784L97.928 216.384H96.8ZM106.966 226.992C107.446 226.992 107.782 226.88 107.974 226.656C108.182 226.432 108.302 226.12 108.334 225.72C108.382 225.32 108.406 224.856 108.406 224.328L108.382 220.968C108.382 219.704 108.182 218.76 107.782 218.136C107.398 217.496 106.774 217.184 105.91 217.2C105.382 217.216 104.862 217.344 104.35 217.584C103.854 217.824 103.438 218.128 103.102 218.496V225.024C103.102 225.312 103.094 225.608 103.078 225.912C103.062 226.2 103.038 226.496 103.006 226.8C103.262 226.784 103.518 226.776 103.774 226.776C104.046 226.76 104.294 226.744 104.518 226.728V228H99.1659V226.992C99.6459 226.992 99.9819 226.88 100.174 226.656C100.366 226.432 100.486 226.12 100.534 225.72C100.582 225.32 100.606 224.856 100.606 224.328V213.48C100.606 213.208 100.606 212.936 100.606 212.664C100.622 212.376 100.646 212.072 100.678 211.752C100.406 211.768 100.118 211.784 99.8139 211.8C99.5099 211.8 99.2299 211.808 98.9739 211.824V210.552C99.6939 210.552 100.27 210.52 100.702 210.456C101.134 210.376 101.462 210.288 101.686 210.192C101.926 210.096 102.102 209.992 102.214 209.88H103.102V217.128C103.454 216.84 103.846 216.584 104.278 216.36C104.71 216.136 105.15 215.96 105.598 215.832C106.062 215.688 106.494 215.616 106.894 215.616C108.318 215.616 109.334 216.048 109.942 216.912C110.566 217.776 110.886 219.128 110.902 220.968V225.024C110.902 225.312 110.894 225.608 110.878 225.912C110.878 226.2 110.854 226.496 110.806 226.8C111.062 226.784 111.326 226.776 111.598 226.776C111.87 226.76 112.118 226.744 112.342 226.728V228H106.966V226.992ZM119.769 228.384C118.649 228.384 117.641 228.128 116.745 227.616C115.865 227.088 115.169 226.352 114.657 225.408C114.145 224.448 113.889 223.32 113.889 222.024C113.889 220.904 114.137 219.856 114.633 218.88C115.145 217.904 115.857 217.12 116.769 216.528C117.681 215.92 118.737 215.616 119.937 215.616C120.609 215.616 121.241 215.72 121.833 215.928C122.441 216.136 122.977 216.464 123.441 216.912C123.921 217.344 124.297 217.912 124.569 218.616C124.841 219.304 124.977 220.144 124.977 221.136L116.721 221.28C116.721 222.368 116.841 223.336 117.081 224.184C117.337 225.032 117.745 225.688 118.305 226.152C118.865 226.616 119.593 226.848 120.489 226.848C120.921 226.848 121.377 226.776 121.857 226.632C122.353 226.472 122.817 226.248 123.249 225.96C123.697 225.672 124.073 225.328 124.377 224.928L125.121 225.576C124.641 226.296 124.089 226.864 123.465 227.28C122.841 227.68 122.201 227.96 121.545 228.12C120.905 228.296 120.313 228.384 119.769 228.384ZM116.817 220.032H122.361C122.361 219.424 122.273 218.88 122.097 218.4C121.937 217.904 121.681 217.512 121.329 217.224C120.977 216.936 120.529 216.792 119.985 216.792C119.137 216.792 118.441 217.064 117.897 217.608C117.353 218.136 116.993 218.944 116.817 220.032ZM140.45 234.12V233.112C140.93 233.112 141.266 233 141.458 232.776C141.65 232.552 141.762 232.24 141.794 231.84C141.842 231.44 141.866 230.976 141.866 230.448L141.89 226.92C141.442 227.416 140.922 227.784 140.33 228.024C139.738 228.264 139.09 228.384 138.386 228.384C137.41 228.384 136.53 228.136 135.746 227.64C134.962 227.128 134.338 226.416 133.874 225.504C133.426 224.592 133.202 223.52 133.202 222.288C133.202 220.96 133.466 219.8 133.994 218.808C134.522 217.8 135.25 217.016 136.178 216.456C137.106 215.896 138.146 215.616 139.298 215.616C140.05 215.616 140.698 215.704 141.242 215.88C141.786 216.056 142.242 216.144 142.61 216.144C142.77 216.144 142.922 216.112 143.066 216.048C143.226 215.984 143.37 215.888 143.498 215.76H144.362L144.386 231.144C144.386 231.432 144.378 231.72 144.362 232.008C144.362 232.312 144.338 232.616 144.29 232.92C144.546 232.904 144.81 232.888 145.082 232.872C145.354 232.872 145.602 232.864 145.826 232.848V234.12H140.45ZM139.394 226.872C139.874 226.872 140.338 226.744 140.786 226.488C141.234 226.232 141.594 225.896 141.866 225.48V219.408C141.866 218.784 141.77 218.28 141.578 217.896C141.402 217.512 141.13 217.232 140.762 217.056C140.41 216.88 139.962 216.792 139.418 216.792C138.666 216.792 138.034 217.016 137.522 217.464C137.026 217.896 136.65 218.488 136.394 219.24C136.138 219.992 136.01 220.84 136.01 221.784C136.026 222.68 136.154 223.52 136.394 224.304C136.65 225.072 137.026 225.696 137.522 226.176C138.034 226.64 138.658 226.872 139.394 226.872ZM152.142 228.384C151.246 228.384 150.502 228.216 149.91 227.88C149.334 227.544 148.902 226.992 148.614 226.224C148.326 225.44 148.182 224.408 148.182 223.128V219.36C148.182 219.088 148.182 218.808 148.182 218.52C148.198 218.216 148.23 217.92 148.278 217.632C148.006 217.648 147.718 217.664 147.414 217.68C147.11 217.68 146.838 217.688 146.598 217.704V216.432H147.174C147.974 216.432 148.574 216.36 148.974 216.216C149.374 216.072 149.654 215.92 149.814 215.76H150.726V223.08C150.726 224.344 150.902 225.288 151.254 225.912C151.606 226.536 152.198 226.84 153.03 226.824C153.574 226.824 154.094 226.664 154.59 226.344C155.102 226.024 155.518 225.648 155.838 225.216V219.528C155.838 219.176 155.846 218.848 155.862 218.544C155.878 218.224 155.91 217.92 155.958 217.632C155.67 217.648 155.374 217.664 155.07 217.68C154.766 217.68 154.486 217.688 154.23 217.704V216.432H154.926C155.63 216.432 156.182 216.36 156.582 216.216C156.982 216.072 157.27 215.92 157.446 215.76H158.358L158.334 224.592C158.334 224.848 158.326 225.2 158.31 225.648C158.294 226.08 158.27 226.464 158.238 226.8C158.51 226.784 158.79 226.768 159.078 226.752C159.382 226.736 159.662 226.728 159.918 226.728V228H156.102C156.07 227.744 156.038 227.504 156.006 227.28C155.99 227.056 155.966 226.84 155.934 226.632C155.438 227.096 154.862 227.504 154.206 227.856C153.55 228.208 152.862 228.384 152.142 228.384ZM161.587 226.992C162.067 226.992 162.403 226.88 162.595 226.656C162.787 226.432 162.899 226.12 162.931 225.72C162.979 225.32 163.003 224.856 163.003 224.328V219.36C163.003 219.088 163.011 218.816 163.027 218.544C163.043 218.256 163.067 217.952 163.099 217.632C162.827 217.648 162.539 217.664 162.235 217.68C161.931 217.68 161.651 217.688 161.395 217.704V216.432C162.115 216.432 162.683 216.4 163.099 216.336C163.531 216.256 163.859 216.168 164.083 216.072C164.323 215.976 164.499 215.872 164.611 215.76H165.523V225.024C165.523 225.312 165.515 225.608 165.499 225.912C165.483 226.2 165.459 226.496 165.427 226.8C165.683 226.784 165.939 226.776 166.195 226.776C166.467 226.76 166.715 226.744 166.939 226.728V228H161.587V226.992ZM164.131 213.552C163.715 213.552 163.363 213.4 163.075 213.096C162.787 212.776 162.643 212.392 162.643 211.944C162.643 211.496 162.795 211.12 163.099 210.816C163.403 210.496 163.747 210.336 164.131 210.336C164.547 210.336 164.891 210.496 165.163 210.816C165.451 211.12 165.595 211.496 165.595 211.944C165.595 212.392 165.451 212.776 165.163 213.096C164.891 213.4 164.547 213.552 164.131 213.552ZM174.472 228.384C173.4 228.384 172.416 228.144 171.52 227.664C170.624 227.168 169.904 226.464 169.36 225.552C168.832 224.64 168.568 223.536 168.568 222.24C168.568 221.376 168.72 220.552 169.024 219.768C169.328 218.968 169.752 218.256 170.296 217.632C170.856 217.008 171.512 216.52 172.264 216.168C173.032 215.8 173.88 215.616 174.808 215.616C175.752 215.616 176.56 215.76 177.232 216.048C177.904 216.336 178.416 216.712 178.768 217.176C179.136 217.64 179.32 218.144 179.32 218.688C179.32 219.072 179.208 219.408 178.984 219.696C178.76 219.984 178.44 220.128 178.024 220.128C177.56 220.144 177.232 220.008 177.04 219.72C176.848 219.416 176.752 219.136 176.752 218.88C176.752 218.736 176.776 218.576 176.824 218.4C176.872 218.208 176.96 218.04 177.088 217.896C176.96 217.56 176.752 217.312 176.464 217.152C176.176 216.992 175.88 216.888 175.576 216.84C175.272 216.792 175.016 216.768 174.808 216.768C173.832 216.784 173.008 217.208 172.336 218.04C171.68 218.856 171.352 220.04 171.352 221.592C171.352 222.584 171.496 223.472 171.784 224.256C172.088 225.04 172.528 225.664 173.104 226.128C173.68 226.592 174.368 226.832 175.168 226.848C175.888 226.848 176.584 226.664 177.256 226.296C177.928 225.912 178.472 225.432 178.888 224.856L179.656 225.528C179.192 226.248 178.656 226.816 178.048 227.232C177.456 227.648 176.848 227.944 176.224 228.12C175.616 228.296 175.032 228.384 174.472 228.384ZM181.081 228V226.992C181.561 226.992 181.889 226.88 182.065 226.656C182.257 226.432 182.369 226.12 182.401 225.72C182.449 225.32 182.473 224.856 182.473 224.328L182.497 213.48C182.497 213.208 182.497 212.936 182.497 212.664C182.513 212.376 182.537 212.072 182.569 211.752C182.297 211.768 182.009 211.784 181.705 211.8C181.401 211.8 181.129 211.808 180.889 211.824V210.552C181.593 210.552 182.153 210.52 182.569 210.456C183.001 210.376 183.337 210.288 183.577 210.192C183.817 210.096 183.985 209.992 184.081 209.88H184.993V221.088H186.025L188.545 218.376C188.801 218.12 189.025 217.896 189.217 217.704C189.409 217.512 189.601 217.344 189.793 217.2L188.281 217.248V216H193.009V216.984C192.449 217.048 191.937 217.216 191.473 217.488C191.025 217.744 190.617 218.04 190.249 218.376C189.881 218.712 189.569 219.024 189.313 219.312L187.537 221.184C187.841 221.328 188.105 221.512 188.329 221.736C188.553 221.944 188.793 222.216 189.049 222.552L190.729 224.712C190.809 224.808 190.937 224.984 191.113 225.24C191.305 225.48 191.529 225.736 191.785 226.008C192.041 226.28 192.305 226.512 192.577 226.704C192.865 226.896 193.137 226.992 193.393 226.992V228H191.017C190.553 228 190.121 227.784 189.721 227.352C189.337 226.92 188.913 226.4 188.449 225.792C188.065 225.28 187.713 224.8 187.393 224.352C187.073 223.888 186.777 223.472 186.505 223.104C186.249 222.736 186.025 222.448 185.833 222.24L184.993 222.288V225.024C184.993 225.312 184.985 225.608 184.969 225.912C184.969 226.2 184.945 226.496 184.897 226.8C185.153 226.784 185.417 226.776 185.689 226.776C185.961 226.76 186.209 226.744 186.433 226.728V228H181.081ZM201.681 213.48C201.681 213.208 201.681 212.936 201.681 212.664C201.697 212.376 201.721 212.072 201.753 211.752C201.465 211.768 201.169 211.784 200.865 211.8C200.577 211.8 200.305 211.808 200.049 211.824V210.552C200.769 210.552 201.345 210.52 201.777 210.456C202.209 210.376 202.537 210.288 202.761 210.192C203.001 210.096 203.177 209.992 203.289 209.88H204.177V216.984C204.657 216.536 205.193 216.2 205.785 215.976C206.393 215.736 207.025 215.616 207.681 215.616C208.673 215.616 209.561 215.864 210.345 216.36C211.145 216.856 211.769 217.56 212.217 218.472C212.681 219.384 212.913 220.464 212.913 221.712C212.913 223.04 212.633 224.208 212.073 225.216C211.529 226.224 210.801 227.008 209.889 227.568C208.977 228.112 207.953 228.384 206.817 228.384C206.305 228.384 205.721 228.288 205.065 228.096C204.425 227.904 203.841 227.512 203.313 226.92L202.689 228H201.633L201.681 213.48ZM204.177 224.28C204.177 225.032 204.297 225.616 204.537 226.032C204.777 226.432 205.081 226.72 205.449 226.896C205.833 227.056 206.233 227.136 206.649 227.136C207.401 227.152 208.033 226.944 208.545 226.512C209.057 226.08 209.441 225.496 209.697 224.76C209.969 224.008 210.105 223.16 210.105 222.216C210.105 221.256 209.985 220.392 209.745 219.624C209.505 218.856 209.137 218.248 208.641 217.8C208.145 217.336 207.521 217.112 206.769 217.128C206.273 217.128 205.793 217.24 205.329 217.464C204.881 217.688 204.497 217.992 204.177 218.376V224.28ZM214.884 226.992C215.364 226.992 215.7 226.88 215.892 226.656C216.084 226.432 216.196 226.12 216.228 225.72C216.276 225.32 216.3 224.856 216.3 224.328V219.336C216.3 219.08 216.3 218.808 216.3 218.52C216.316 218.216 216.348 217.92 216.396 217.632C216.124 217.648 215.836 217.664 215.532 217.68C215.228 217.68 214.948 217.688 214.692 217.704V216.432H215.508C216.18 216.432 216.692 216.36 217.044 216.216C217.396 216.072 217.652 215.92 217.812 215.76H218.676C218.708 215.984 218.732 216.296 218.748 216.696C218.764 217.096 218.78 217.544 218.796 218.04C219.1 217.592 219.452 217.192 219.852 216.84C220.252 216.472 220.684 216.176 221.148 215.952C221.628 215.728 222.124 215.616 222.636 215.616C223.132 215.616 223.556 215.752 223.908 216.024C224.276 216.28 224.46 216.704 224.46 217.296C224.46 217.456 224.412 217.64 224.316 217.848C224.236 218.056 224.092 218.24 223.884 218.4C223.692 218.544 223.428 218.616 223.092 218.616C222.756 218.6 222.46 218.472 222.204 218.232C221.964 217.992 221.852 217.664 221.868 217.248C221.484 217.248 221.1 217.368 220.716 217.608C220.332 217.832 219.972 218.136 219.636 218.52C219.316 218.904 219.044 219.32 218.82 219.768V225.024C218.82 225.312 218.812 225.608 218.796 225.912C218.796 226.2 218.772 226.496 218.724 226.8C218.98 226.784 219.244 226.776 219.516 226.776C219.788 226.76 220.036 226.744 220.26 226.728V228H214.884V226.992ZM231.429 228.384C230.293 228.384 229.269 228.128 228.357 227.616C227.445 227.104 226.717 226.392 226.173 225.48C225.645 224.552 225.381 223.488 225.381 222.288C225.381 220.992 225.645 219.848 226.173 218.856C226.717 217.848 227.445 217.056 228.357 216.48C229.269 215.904 230.285 215.616 231.405 215.616C232.541 215.616 233.565 215.88 234.477 216.408C235.389 216.92 236.109 217.64 236.637 218.568C237.181 219.48 237.453 220.536 237.453 221.736C237.453 223 237.189 224.136 236.661 225.144C236.133 226.152 235.413 226.944 234.501 227.52C233.605 228.096 232.581 228.384 231.429 228.384ZM231.597 227.184C232.365 227.168 232.965 226.928 233.397 226.464C233.845 226 234.165 225.408 234.357 224.688C234.549 223.952 234.645 223.192 234.645 222.408C234.645 221.72 234.581 221.048 234.453 220.392C234.341 219.72 234.157 219.112 233.901 218.568C233.645 218.024 233.309 217.592 232.893 217.272C232.477 216.936 231.973 216.776 231.381 216.792C230.629 216.792 230.013 217.024 229.533 217.488C229.069 217.952 228.725 218.552 228.501 219.288C228.293 220.008 228.189 220.776 228.189 221.592C228.189 222.536 228.309 223.432 228.549 224.28C228.789 225.128 229.157 225.824 229.653 226.368C230.165 226.912 230.813 227.184 231.597 227.184ZM243.148 228.072L240.1 219.144C239.972 218.792 239.868 218.504 239.788 218.28C239.708 218.04 239.644 217.84 239.596 217.68C239.548 217.504 239.508 217.344 239.476 217.2L238.324 217.272V216H243.628V216.984C242.988 217 242.628 217.232 242.548 217.68C242.468 218.112 242.54 218.664 242.764 219.336L243.772 222.552C243.884 222.936 243.996 223.328 244.108 223.728C244.22 224.112 244.332 224.496 244.444 224.88C244.572 224.48 244.7 224.064 244.828 223.632C244.956 223.2 245.1 222.736 245.26 222.24L247.252 216H248.788L251.044 222.864C251.156 223.216 251.268 223.584 251.38 223.968C251.508 224.336 251.628 224.696 251.74 225.048C251.852 224.696 251.964 224.344 252.076 223.992C252.204 223.64 252.316 223.296 252.412 222.96L253.78 218.904C253.908 218.536 254.02 218.216 254.116 217.944C254.228 217.656 254.356 217.4 254.5 217.176L253.108 217.272V216H257.428V216.984C257.044 217 256.724 217.08 256.468 217.224C256.212 217.352 255.988 217.52 255.796 217.728C255.62 217.92 255.476 218.144 255.364 218.4C255.252 218.64 255.156 218.88 255.076 219.12L251.86 228.072H250.372L248.308 222C248.228 221.744 248.14 221.472 248.044 221.184C247.948 220.88 247.844 220.568 247.732 220.248C247.636 219.928 247.54 219.624 247.444 219.336C247.364 219.672 247.26 220.032 247.132 220.416C247.02 220.784 246.908 221.144 246.796 221.496C246.684 221.832 246.588 222.128 246.508 222.384L244.564 228.072H243.148ZM258.477 228V226.992C258.957 226.992 259.293 226.88 259.485 226.656C259.677 226.432 259.789 226.12 259.821 225.72C259.869 225.32 259.893 224.856 259.893 224.328L259.917 219.336C259.917 219.08 259.917 218.808 259.917 218.52C259.933 218.216 259.965 217.92 260.013 217.632C259.725 217.648 259.429 217.664 259.125 217.68C258.837 217.68 258.565 217.688 258.309 217.704V216.432C259.029 216.432 259.589 216.4 259.989 216.336C260.405 216.256 260.717 216.168 260.925 216.072C261.149 215.976 261.317 215.872 261.429 215.76H262.293C262.309 215.904 262.317 216.04 262.317 216.168C262.333 216.296 262.341 216.432 262.341 216.576C262.357 216.72 262.373 216.904 262.389 217.128C262.741 216.84 263.125 216.584 263.541 216.36C263.957 216.136 264.389 215.96 264.837 215.832C265.301 215.688 265.741 215.616 266.157 215.616C267.581 215.616 268.605 216.048 269.229 216.912C269.869 217.776 270.189 219.128 270.189 220.968V225.024C270.189 225.312 270.181 225.608 270.165 225.912C270.149 226.2 270.125 226.496 270.093 226.8C270.349 226.784 270.605 226.776 270.861 226.776C271.133 226.76 271.381 226.744 271.605 226.728V228H266.253V226.992C266.733 226.992 267.069 226.88 267.261 226.656C267.453 226.432 267.565 226.12 267.597 225.72C267.645 225.32 267.669 224.856 267.669 224.328V220.968C267.653 219.704 267.445 218.752 267.045 218.112C266.661 217.472 266.037 217.16 265.173 217.176C264.661 217.176 264.157 217.304 263.661 217.56C263.165 217.816 262.749 218.128 262.413 218.496C262.413 218.656 262.413 218.832 262.413 219.024C262.413 219.2 262.413 219.384 262.413 219.576V225.024C262.413 225.312 262.405 225.608 262.389 225.912C262.373 226.2 262.349 226.496 262.317 226.8C262.573 226.784 262.829 226.776 263.085 226.776C263.357 226.76 263.605 226.744 263.829 226.728V228H258.477ZM281.107 215.424C281.107 213.6 281.459 212.208 282.163 211.248C282.883 210.288 284.011 209.808 285.547 209.808C286.027 209.808 286.475 209.888 286.891 210.048C287.307 210.192 287.643 210.408 287.899 210.696C288.155 210.968 288.283 211.296 288.283 211.68C288.283 212.032 288.179 212.328 287.971 212.568C287.779 212.808 287.499 212.936 287.131 212.952C286.715 212.968 286.411 212.848 286.219 212.592C286.043 212.336 285.955 212.08 285.955 211.824C285.955 211.744 285.955 211.656 285.955 211.56C285.971 211.464 286.003 211.368 286.051 211.272C285.939 211.144 285.795 211.056 285.618 211.008C285.459 210.96 285.307 210.936 285.163 210.936C284.747 210.936 284.427 211.056 284.203 211.296C283.979 211.536 283.819 211.84 283.723 212.208C283.627 212.576 283.579 212.952 283.579 213.336V216H286.651V217.248L283.603 217.32L283.627 225C283.627 225.288 283.619 225.584 283.603 225.888C283.587 226.192 283.563 226.496 283.531 226.8C283.787 226.784 284.051 226.776 284.323 226.776C284.611 226.76 284.867 226.744 285.091 226.728V228H279.691V226.992C280.171 226.992 280.507 226.88 280.699 226.656C280.891 226.432 281.003 226.12 281.035 225.72C281.083 225.32 281.107 224.856 281.107 224.328V217.344L279.211 217.392V216H281.107V215.424ZM293.749 228.384C292.613 228.384 291.589 228.128 290.677 227.616C289.765 227.104 289.037 226.392 288.493 225.48C287.965 224.552 287.701 223.488 287.701 222.288C287.701 220.992 287.965 219.848 288.493 218.856C289.037 217.848 289.765 217.056 290.677 216.48C291.589 215.904 292.605 215.616 293.725 215.616C294.861 215.616 295.885 215.88 296.797 216.408C297.709 216.92 298.429 217.64 298.957 218.568C299.501 219.48 299.773 220.536 299.773 221.736C299.773 223 299.509 224.136 298.981 225.144C298.453 226.152 297.733 226.944 296.821 227.52C295.925 228.096 294.901 228.384 293.749 228.384ZM293.917 227.184C294.685 227.168 295.285 226.928 295.717 226.464C296.165 226 296.485 225.408 296.677 224.688C296.869 223.952 296.965 223.192 296.965 222.408C296.965 221.72 296.901 221.048 296.773 220.392C296.661 219.72 296.477 219.112 296.221 218.568C295.965 218.024 295.629 217.592 295.213 217.272C294.797 216.936 294.293 216.776 293.701 216.792C292.949 216.792 292.333 217.024 291.853 217.488C291.389 217.952 291.045 218.552 290.821 219.288C290.613 220.008 290.509 220.776 290.509 221.592C290.509 222.536 290.629 223.432 290.869 224.28C291.109 225.128 291.477 225.824 291.973 226.368C292.485 226.912 293.133 227.184 293.917 227.184ZM301.243 228V227.016C301.691 226.888 302.059 226.68 302.347 226.392C302.635 226.104 302.979 225.704 303.379 225.192L305.683 222.312C305.443 222.008 305.171 221.664 304.867 221.28C304.563 220.896 304.275 220.52 304.003 220.152C303.731 219.784 303.499 219.488 303.307 219.264C302.987 218.848 302.715 218.464 302.491 218.112C302.283 217.744 302.131 217.448 302.035 217.224L301.075 217.272V216H306.139V216.984C305.499 217 305.155 217.16 305.107 217.464C305.075 217.752 305.307 218.224 305.803 218.88L307.099 220.584L308.875 218.448C309.099 218.192 309.291 217.96 309.451 217.752C309.627 217.544 309.803 217.352 309.979 217.176L308.491 217.272V216H312.523V216.984C312.123 217.112 311.771 217.28 311.467 217.488C311.179 217.68 310.891 217.928 310.603 218.232C310.331 218.52 310.011 218.888 309.643 219.336L307.891 221.472L311.011 225.288C311.203 225.528 311.387 225.768 311.563 226.008C311.755 226.232 311.939 226.496 312.115 226.8L313.099 226.728V228H308.131V227.016C308.547 227 308.811 226.896 308.923 226.704C309.051 226.512 308.955 226.224 308.635 225.84L306.475 223.248L304.771 225.528C304.579 225.784 304.395 226.016 304.219 226.224C304.059 226.416 303.875 226.616 303.667 226.824L305.275 226.728V228H301.243ZM319.743 234.504C319.007 234.504 318.471 234.344 318.135 234.024C317.783 233.704 317.607 233.344 317.607 232.944C317.607 232.624 317.711 232.328 317.919 232.056C318.127 231.8 318.423 231.664 318.807 231.648C319.207 231.632 319.503 231.752 319.695 232.008C319.887 232.264 319.983 232.528 319.983 232.8C319.983 232.848 319.983 232.896 319.983 232.944C319.983 232.992 319.975 233.04 319.959 233.088C320.135 233.168 320.319 233.208 320.511 233.208C320.927 233.208 321.231 233.064 321.423 232.776C321.631 232.488 321.767 232.12 321.831 231.672C321.911 231.24 321.951 230.808 321.951 230.376V219.36C321.951 219.088 321.959 218.816 321.975 218.544C321.991 218.256 322.015 217.952 322.047 217.632C321.759 217.648 321.463 217.664 321.159 217.68C320.871 217.68 320.599 217.688 320.343 217.704V216.432C321.063 216.432 321.639 216.4 322.071 216.336C322.503 216.256 322.831 216.168 323.055 216.072C323.295 215.976 323.471 215.872 323.583 215.76H324.471V228.024C324.471 229.512 324.263 230.736 323.847 231.696C323.431 232.656 322.863 233.36 322.143 233.808C321.439 234.272 320.639 234.504 319.743 234.504ZM323.127 213.552C322.711 213.552 322.359 213.4 322.071 213.096C321.783 212.776 321.639 212.392 321.639 211.944C321.639 211.496 321.791 211.12 322.095 210.816C322.399 210.496 322.743 210.336 323.127 210.336C323.543 210.336 323.887 210.496 324.159 210.816C324.447 211.12 324.591 211.496 324.591 211.944C324.591 212.392 324.447 212.776 324.159 213.096C323.887 213.4 323.543 213.552 323.127 213.552ZM332.4 228.384C331.504 228.384 330.76 228.216 330.168 227.88C329.592 227.544 329.16 226.992 328.872 226.224C328.584 225.44 328.44 224.408 328.44 223.128V219.36C328.44 219.088 328.44 218.808 328.44 218.52C328.456 218.216 328.488 217.92 328.536 217.632C328.264 217.648 327.976 217.664 327.672 217.68C327.368 217.68 327.096 217.688 326.856 217.704V216.432H327.432C328.232 216.432 328.832 216.36 329.232 216.216C329.632 216.072 329.912 215.92 330.072 215.76H330.984V223.08C330.984 224.344 331.16 225.288 331.512 225.912C331.864 226.536 332.456 226.84 333.288 226.824C333.832 226.824 334.352 226.664 334.848 226.344C335.36 226.024 335.776 225.648 336.096 225.216V219.528C336.096 219.176 336.104 218.848 336.12 218.544C336.136 218.224 336.168 217.92 336.216 217.632C335.928 217.648 335.632 217.664 335.328 217.68C335.024 217.68 334.744 217.688 334.488 217.704V216.432H335.184C335.888 216.432 336.44 216.36 336.84 216.216C337.24 216.072 337.528 215.92 337.704 215.76H338.616L338.592 224.592C338.592 224.848 338.584 225.2 338.568 225.648C338.552 226.08 338.528 226.464 338.496 226.8C338.768 226.784 339.048 226.768 339.336 226.752C339.64 226.736 339.92 226.728 340.176 226.728V228H336.36C336.328 227.744 336.296 227.504 336.264 227.28C336.248 227.056 336.224 226.84 336.192 226.632C335.696 227.096 335.12 227.504 334.464 227.856C333.808 228.208 333.12 228.384 332.4 228.384ZM341.845 228V226.992C342.325 226.992 342.661 226.88 342.853 226.656C343.045 226.432 343.157 226.12 343.189 225.72C343.237 225.32 343.261 224.856 343.261 224.328V219.336C343.261 219.08 343.261 218.808 343.261 218.52C343.277 218.216 343.309 217.92 343.357 217.632C343.085 217.648 342.797 217.664 342.493 217.68C342.189 217.68 341.909 217.688 341.653 217.704V216.432C342.373 216.432 342.933 216.4 343.333 216.336C343.749 216.256 344.061 216.168 344.269 216.072C344.493 215.976 344.661 215.872 344.773 215.76H345.637C345.669 215.92 345.685 216.112 345.685 216.336C345.701 216.544 345.717 216.768 345.733 217.008C346.229 216.592 346.789 216.256 347.413 216C348.053 215.744 348.669 215.616 349.261 215.616C350.045 215.616 350.693 215.76 351.205 216.048C351.733 216.32 352.149 216.712 352.453 217.224C353.013 216.76 353.645 216.376 354.349 216.072C355.053 215.768 355.741 215.616 356.413 215.616C357.773 215.616 358.781 216.024 359.437 216.84C360.093 217.64 360.413 218.984 360.397 220.872L360.373 225.024C360.373 225.312 360.365 225.608 360.349 225.912C360.349 226.2 360.325 226.496 360.277 226.8C360.533 226.784 360.797 226.776 361.069 226.776C361.341 226.76 361.589 226.744 361.813 226.728V228H356.533V226.992C356.981 226.992 357.293 226.88 357.469 226.656C357.661 226.432 357.773 226.12 357.805 225.72C357.853 225.32 357.877 224.856 357.877 224.328V220.872C357.861 219.608 357.653 218.68 357.253 218.088C356.853 217.496 356.245 217.2 355.429 217.2C354.965 217.2 354.509 217.304 354.061 217.512C353.613 217.704 353.213 217.952 352.861 218.256C352.941 218.528 352.997 218.832 353.029 219.168C353.077 219.488 353.101 219.824 353.101 220.176C353.085 220.976 353.077 221.784 353.077 222.6C353.077 223.4 353.077 224.208 353.077 225.024C353.077 225.312 353.069 225.608 353.053 225.912C353.037 226.2 353.013 226.496 352.981 226.8C353.237 226.784 353.493 226.776 353.749 226.776C354.021 226.76 354.269 226.744 354.493 226.728V228H349.165V226.992C349.645 226.992 349.973 226.88 350.149 226.656C350.341 226.432 350.453 226.12 350.485 225.72C350.533 225.32 350.557 224.856 350.557 224.328V220.848C350.573 219.584 350.389 218.656 350.005 218.064C349.637 217.456 349.045 217.16 348.229 217.176C347.765 217.176 347.317 217.28 346.885 217.488C346.453 217.68 346.077 217.928 345.757 218.232C345.757 218.424 345.757 218.624 345.757 218.832C345.773 219.04 345.781 219.264 345.781 219.504V225.024C345.781 225.312 345.773 225.608 345.757 225.912C345.741 226.2 345.717 226.496 345.685 226.8C345.941 226.784 346.197 226.776 346.453 226.776C346.709 226.76 346.949 226.744 347.173 226.728V228H341.845ZM363.285 234.12V233.112C363.765 233.112 364.101 233 364.293 232.776C364.485 232.552 364.597 232.24 364.629 231.84C364.677 231.44 364.701 230.976 364.701 230.448L364.725 219.336C364.725 219.08 364.733 218.808 364.749 218.52C364.765 218.216 364.789 217.92 364.821 217.632C364.549 217.648 364.261 217.664 363.957 217.68C363.653 217.68 363.373 217.688 363.117 217.704V216.432C363.837 216.432 364.397 216.4 364.797 216.336C365.213 216.256 365.525 216.168 365.733 216.072C365.957 215.976 366.125 215.872 366.237 215.76H367.101C367.117 215.92 367.133 216.112 367.149 216.336C367.165 216.56 367.181 216.784 367.197 217.008C367.709 216.56 368.277 216.216 368.901 215.976C369.525 215.736 370.149 215.616 370.773 215.616C371.701 215.616 372.549 215.864 373.317 216.36C374.101 216.84 374.725 217.528 375.189 218.424C375.669 219.32 375.909 220.384 375.909 221.616C375.909 222.944 375.637 224.12 375.093 225.144C374.549 226.168 373.813 226.968 372.885 227.544C371.973 228.104 370.957 228.384 369.837 228.384C369.325 228.384 368.853 228.32 368.421 228.192C367.989 228.08 367.581 227.92 367.197 227.712V231.144C367.197 231.432 367.189 231.72 367.173 232.008C367.173 232.312 367.157 232.616 367.125 232.92C367.381 232.904 367.637 232.888 367.893 232.872C368.165 232.872 368.413 232.864 368.637 232.848V234.12H363.285ZM369.669 227.136C370.437 227.136 371.069 226.912 371.565 226.464C372.077 226 372.453 225.384 372.693 224.616C372.949 223.832 373.077 222.952 373.077 221.976C373.077 221.16 372.965 220.384 372.741 219.648C372.517 218.896 372.157 218.288 371.661 217.824C371.181 217.344 370.549 217.112 369.765 217.128C369.269 217.128 368.797 217.248 368.349 217.488C367.901 217.728 367.525 218.024 367.221 218.376C367.221 218.584 367.221 218.808 367.221 219.048C367.237 219.288 367.245 219.592 367.245 219.96C367.245 220.312 367.245 220.768 367.245 221.328C367.245 221.872 367.237 222.56 367.221 223.392C367.221 224.208 367.221 225.2 367.221 226.368C367.541 226.608 367.909 226.8 368.325 226.944C368.757 227.088 369.205 227.152 369.669 227.136ZM382.957 228.384C382.205 228.384 381.509 228.28 380.869 228.072C380.229 227.88 379.717 227.648 379.333 227.376L379.405 228.168H378.133L378.013 224.04H379.021C379.053 224.632 379.237 225.168 379.573 225.648C379.909 226.128 380.341 226.504 380.869 226.776C381.413 227.048 381.997 227.184 382.621 227.184C382.989 227.184 383.349 227.128 383.701 227.016C384.053 226.888 384.349 226.704 384.589 226.464C384.829 226.208 384.949 225.896 384.949 225.528C384.949 225.128 384.821 224.8 384.565 224.544C384.325 224.272 383.989 224.032 383.557 223.824C383.141 223.616 382.661 223.408 382.117 223.2C381.637 223.008 381.149 222.808 380.653 222.6C380.173 222.392 379.725 222.144 379.309 221.856C378.893 221.568 378.565 221.216 378.325 220.8C378.085 220.368 377.965 219.84 377.965 219.216C377.965 218.848 378.037 218.456 378.181 218.04C378.325 217.608 378.557 217.216 378.877 216.864C379.197 216.496 379.629 216.2 380.173 215.976C380.717 215.736 381.389 215.616 382.189 215.616C382.621 215.616 383.101 215.688 383.629 215.832C384.173 215.976 384.677 216.224 385.141 216.576L385.117 215.736H386.389V219.96H385.357C385.309 219.4 385.157 218.88 384.901 218.4C384.661 217.92 384.317 217.528 383.868 217.224C383.421 216.92 382.877 216.768 382.237 216.768C381.613 216.768 381.101 216.928 380.701 217.248C380.317 217.552 380.125 217.936 380.125 218.4C380.125 218.864 380.269 219.24 380.557 219.528C380.861 219.816 381.253 220.064 381.733 220.272C382.213 220.48 382.733 220.688 383.293 220.896C383.965 221.168 384.597 221.464 385.189 221.784C385.781 222.104 386.261 222.504 386.629 222.984C386.997 223.464 387.181 224.072 387.181 224.808C387.181 225.608 386.973 226.28 386.557 226.824C386.157 227.352 385.637 227.744 384.997 228C384.357 228.256 383.677 228.384 382.957 228.384ZM401.351 228.384C400.215 228.384 399.191 228.128 398.279 227.616C397.367 227.104 396.639 226.392 396.095 225.48C395.567 224.552 395.303 223.488 395.303 222.288C395.303 220.992 395.567 219.848 396.095 218.856C396.639 217.848 397.367 217.056 398.279 216.48C399.191 215.904 400.207 215.616 401.327 215.616C402.463 215.616 403.487 215.88 404.399 216.408C405.311 216.92 406.031 217.64 406.559 218.568C407.103 219.48 407.375 220.536 407.375 221.736C407.375 223 407.111 224.136 406.583 225.144C406.055 226.152 405.335 226.944 404.423 227.52C403.527 228.096 402.503 228.384 401.351 228.384ZM401.519 227.184C402.287 227.168 402.887 226.928 403.319 226.464C403.767 226 404.087 225.408 404.279 224.688C404.471 223.952 404.567 223.192 404.567 222.408C404.567 221.72 404.503 221.048 404.375 220.392C404.263 219.72 404.079 219.112 403.823 218.568C403.567 218.024 403.231 217.592 402.815 217.272C402.399 216.936 401.895 216.776 401.303 216.792C400.551 216.792 399.935 217.024 399.455 217.488C398.991 217.952 398.647 218.552 398.423 219.288C398.215 220.008 398.111 220.776 398.111 221.592C398.111 222.536 398.231 223.432 398.471 224.28C398.711 225.128 399.079 225.824 399.575 226.368C400.087 226.912 400.735 227.184 401.519 227.184ZM413.74 228.072L410.188 220.08C409.948 219.536 409.764 219.088 409.636 218.736C409.524 218.384 409.444 218.088 409.396 217.848C409.364 217.592 409.332 217.376 409.3 217.2L408.316 217.272V216H413.14V216.984C412.708 217 412.428 217.12 412.3 217.344C412.172 217.568 412.14 217.864 412.204 218.232C412.284 218.584 412.404 218.968 412.564 219.384L414.22 223.224C414.348 223.512 414.468 223.808 414.58 224.112C414.708 224.416 414.836 224.728 414.964 225.048H414.988C415.084 224.776 415.18 224.496 415.276 224.208C415.388 223.904 415.492 223.616 415.588 223.344L417.22 218.856C417.348 218.472 417.476 218.144 417.604 217.872C417.748 217.6 417.868 217.368 417.964 217.176L416.428 217.272V216H420.484V216.984C420.132 217.016 419.828 217.168 419.572 217.44C419.316 217.712 419.076 218.08 418.852 218.544C418.644 219.008 418.42 219.528 418.18 220.104L415.06 228.072H413.74ZM427.175 228.384C426.055 228.384 425.047 228.128 424.151 227.616C423.271 227.088 422.575 226.352 422.063 225.408C421.551 224.448 421.295 223.32 421.295 222.024C421.295 220.904 421.543 219.856 422.039 218.88C422.551 217.904 423.263 217.12 424.175 216.528C425.087 215.92 426.143 215.616 427.343 215.616C428.015 215.616 428.647 215.72 429.239 215.928C429.847 216.136 430.383 216.464 430.847 216.912C431.327 217.344 431.703 217.912 431.975 218.616C432.247 219.304 432.383 220.144 432.383 221.136L424.127 221.28C424.127 222.368 424.247 223.336 424.487 224.184C424.743 225.032 425.151 225.688 425.711 226.152C426.271 226.616 426.999 226.848 427.895 226.848C428.327 226.848 428.783 226.776 429.263 226.632C429.759 226.472 430.223 226.248 430.655 225.96C431.103 225.672 431.479 225.328 431.783 224.928L432.527 225.576C432.047 226.296 431.495 226.864 430.871 227.28C430.247 227.68 429.607 227.96 428.951 228.12C428.311 228.296 427.719 228.384 427.175 228.384ZM424.223 220.032H429.767C429.767 219.424 429.679 218.88 429.503 218.4C429.343 217.904 429.087 217.512 428.735 217.224C428.383 216.936 427.935 216.792 427.391 216.792C426.543 216.792 425.847 217.064 425.303 217.608C424.759 218.136 424.399 218.944 424.223 220.032ZM434.399 226.992C434.879 226.992 435.215 226.88 435.407 226.656C435.599 226.432 435.711 226.12 435.743 225.72C435.791 225.32 435.815 224.856 435.815 224.328V219.336C435.815 219.08 435.815 218.808 435.815 218.52C435.831 218.216 435.863 217.92 435.911 217.632C435.639 217.648 435.351 217.664 435.047 217.68C434.743 217.68 434.463 217.688 434.207 217.704V216.432H435.023C435.695 216.432 436.207 216.36 436.559 216.216C436.911 216.072 437.167 215.92 437.327 215.76H438.191C438.223 215.984 438.247 216.296 438.263 216.696C438.279 217.096 438.295 217.544 438.311 218.04C438.615 217.592 438.967 217.192 439.367 216.84C439.767 216.472 440.199 216.176 440.663 215.952C441.143 215.728 441.639 215.616 442.151 215.616C442.647 215.616 443.071 215.752 443.423 216.024C443.791 216.28 443.975 216.704 443.975 217.296C443.975 217.456 443.927 217.64 443.831 217.848C443.751 218.056 443.607 218.24 443.399 218.4C443.207 218.544 442.943 218.616 442.607 218.616C442.271 218.6 441.975 218.472 441.719 218.232C441.479 217.992 441.367 217.664 441.383 217.248C440.999 217.248 440.615 217.368 440.231 217.608C439.847 217.832 439.487 218.136 439.151 218.52C438.831 218.904 438.559 219.32 438.335 219.768V225.024C438.335 225.312 438.327 225.608 438.311 225.912C438.311 226.2 438.287 226.496 438.239 226.8C438.495 226.784 438.759 226.776 439.031 226.776C439.303 226.76 439.551 226.744 439.775 226.728V228H434.399V226.992ZM456.069 228.384C455.669 228.384 455.261 228.328 454.845 228.216C454.445 228.12 454.077 227.92 453.741 227.616C453.405 227.296 453.141 226.84 452.949 226.248C452.757 225.656 452.661 224.872 452.661 223.896L452.709 217.344H450.933V216C451.365 215.984 451.805 215.824 452.253 215.52C452.701 215.216 453.093 214.808 453.429 214.296C453.765 213.784 453.997 213.232 454.125 212.64H455.253V216H458.949V217.248L455.253 217.296L455.205 223.704C455.205 224.312 455.253 224.848 455.349 225.312C455.461 225.76 455.637 226.112 455.877 226.368C456.133 226.608 456.477 226.728 456.909 226.728C457.277 226.728 457.653 226.616 458.037 226.392C458.437 226.168 458.813 225.8 459.165 225.288L459.981 226.008C459.597 226.568 459.213 227.008 458.829 227.328C458.445 227.648 458.077 227.88 457.725 228.024C457.373 228.184 457.053 228.28 456.765 228.312C456.477 228.36 456.245 228.384 456.069 228.384ZM468.513 226.992C468.993 226.992 469.329 226.88 469.521 226.656C469.729 226.432 469.849 226.12 469.881 225.72C469.929 225.32 469.953 224.856 469.953 224.328L469.929 220.968C469.929 219.704 469.729 218.76 469.329 218.136C468.945 217.496 468.321 217.184 467.457 217.2C466.929 217.216 466.409 217.344 465.897 217.584C465.401 217.824 464.985 218.128 464.649 218.496V225.024C464.649 225.312 464.641 225.608 464.625 225.912C464.609 226.2 464.585 226.496 464.553 226.8C464.809 226.784 465.065 226.776 465.321 226.776C465.593 226.76 465.841 226.744 466.065 226.728V228H460.713V226.992C461.193 226.992 461.529 226.88 461.721 226.656C461.913 226.432 462.033 226.12 462.081 225.72C462.129 225.32 462.153 224.856 462.153 224.328V213.48C462.153 213.208 462.153 212.936 462.153 212.664C462.169 212.376 462.193 212.072 462.225 211.752C461.953 211.768 461.665 211.784 461.361 211.8C461.057 211.8 460.777 211.808 460.521 211.824V210.552C461.241 210.552 461.817 210.52 462.249 210.456C462.681 210.376 463.009 210.288 463.233 210.192C463.473 210.096 463.649 209.992 463.761 209.88H464.649V217.128C465.001 216.84 465.393 216.584 465.825 216.36C466.257 216.136 466.697 215.96 467.145 215.832C467.609 215.688 468.041 215.616 468.441 215.616C469.865 215.616 470.881 216.048 471.489 216.912C472.113 217.776 472.433 219.128 472.449 220.968V225.024C472.449 225.312 472.441 225.608 472.425 225.912C472.425 226.2 472.401 226.496 472.353 226.8C472.609 226.784 472.873 226.776 473.145 226.776C473.417 226.76 473.665 226.744 473.889 226.728V228H468.513V226.992ZM481.315 228.384C480.195 228.384 479.187 228.128 478.291 227.616C477.411 227.088 476.715 226.352 476.203 225.408C475.691 224.448 475.435 223.32 475.435 222.024C475.435 220.904 475.683 219.856 476.179 218.88C476.691 217.904 477.403 217.12 478.315 216.528C479.227 215.92 480.283 215.616 481.483 215.616C482.155 215.616 482.787 215.72 483.379 215.928C483.987 216.136 484.523 216.464 484.987 216.912C485.467 217.344 485.843 217.912 486.115 218.616C486.387 219.304 486.523 220.144 486.523 221.136L478.267 221.28C478.267 222.368 478.387 223.336 478.627 224.184C478.883 225.032 479.291 225.688 479.851 226.152C480.411 226.616 481.139 226.848 482.035 226.848C482.467 226.848 482.923 226.776 483.403 226.632C483.899 226.472 484.363 226.248 484.795 225.96C485.243 225.672 485.619 225.328 485.923 224.928L486.667 225.576C486.187 226.296 485.635 226.864 485.011 227.28C484.387 227.68 483.747 227.96 483.091 228.12C482.451 228.296 481.859 228.384 481.315 228.384ZM478.363 220.032H483.907C483.907 219.424 483.819 218.88 483.643 218.4C483.483 217.904 483.227 217.512 482.875 217.224C482.523 216.936 482.075 216.792 481.531 216.792C480.683 216.792 479.987 217.064 479.443 217.608C478.899 218.136 478.539 218.944 478.363 220.032ZM494.557 226.992C495.037 226.992 495.373 226.88 495.565 226.656C495.757 226.432 495.869 226.12 495.901 225.72C495.949 225.32 495.973 224.856 495.973 224.328V213.48C495.973 213.208 495.973 212.936 495.973 212.664C495.989 212.376 496.013 212.072 496.045 211.752C495.773 211.768 495.485 211.784 495.181 211.8C494.877 211.8 494.605 211.808 494.365 211.824V210.552C495.085 210.552 495.653 210.52 496.069 210.456C496.501 210.376 496.829 210.288 497.053 210.192C497.293 210.096 497.469 209.992 497.581 209.88H498.493V225.024C498.493 225.312 498.485 225.608 498.469 225.912C498.453 226.2 498.429 226.496 498.397 226.8C498.653 226.784 498.909 226.776 499.165 226.776C499.437 226.76 499.685 226.744 499.909 226.728V228H494.557V226.992ZM508.768 228C508.736 227.744 508.712 227.52 508.696 227.328C508.68 227.136 508.656 226.936 508.624 226.728C508.08 227.272 507.496 227.688 506.872 227.976C506.248 228.248 505.6 228.384 504.928 228.384C503.776 228.384 502.904 228.104 502.312 227.544C501.736 226.968 501.448 226.256 501.448 225.408C501.448 224.672 501.664 224.032 502.096 223.488C502.528 222.944 503.096 222.504 503.8 222.168C504.504 221.816 505.272 221.56 506.104 221.4C506.936 221.224 507.752 221.136 508.552 221.136V219.72C508.552 219.208 508.504 218.736 508.408 218.304C508.312 217.856 508.112 217.496 507.808 217.224C507.52 216.936 507.064 216.792 506.44 216.792C506.024 216.776 505.608 216.856 505.192 217.032C504.776 217.192 504.456 217.464 504.232 217.848C504.36 217.976 504.44 218.128 504.472 218.304C504.52 218.464 504.544 218.616 504.544 218.76C504.544 218.984 504.448 219.24 504.256 219.528C504.064 219.8 503.736 219.928 503.272 219.912C502.888 219.912 502.592 219.784 502.384 219.528C502.192 219.256 502.096 218.944 502.096 218.592C502.096 218.016 502.304 217.504 502.72 217.056C503.152 216.608 503.736 216.256 504.472 216C505.208 215.744 506.032 215.616 506.944 215.616C508.32 215.616 509.344 215.976 510.016 216.696C510.704 217.416 511.048 218.552 511.048 220.104C511.048 220.68 511.048 221.232 511.048 221.76C511.048 222.288 511.04 222.816 511.024 223.344C511.024 223.872 511.024 224.432 511.024 225.024C511.024 225.264 511.016 225.536 511 225.84C510.984 226.144 510.96 226.464 510.928 226.8C511.2 226.784 511.48 226.768 511.768 226.752C512.056 226.736 512.328 226.728 512.584 226.728V228H508.768ZM508.552 222.24C508.04 222.272 507.512 222.344 506.968 222.456C506.44 222.568 505.96 222.736 505.528 222.96C505.096 223.184 504.744 223.472 504.472 223.824C504.216 224.176 504.088 224.6 504.088 225.096C504.12 225.64 504.296 226.04 504.616 226.296C504.952 226.552 505.344 226.68 505.792 226.68C506.352 226.68 506.848 226.576 507.28 226.368C507.712 226.144 508.136 225.84 508.552 225.456C508.536 225.28 508.528 225.104 508.528 224.928C508.528 224.736 508.528 224.536 508.528 224.328C508.528 224.184 508.528 223.92 508.528 223.536C508.544 223.136 508.552 222.704 508.552 222.24ZM514.014 228V226.776L520.326 218.592C520.582 218.272 520.83 217.96 521.07 217.656C521.326 217.352 521.518 217.16 521.646 217.08L517.566 217.152C517.038 217.152 516.622 217.304 516.318 217.608C516.03 217.896 515.814 218.288 515.67 218.784C515.526 219.264 515.414 219.808 515.334 220.416H514.326L514.638 216H524.142V217.008L517.854 225.384C517.646 225.656 517.446 225.896 517.254 226.104C517.078 226.312 516.854 226.528 516.582 226.752L520.782 226.848C521.406 226.848 521.894 226.704 522.246 226.416C522.598 226.112 522.862 225.712 523.038 225.216C523.23 224.704 523.374 224.136 523.47 223.512H524.43L524.118 228H514.014ZM528.503 234.504C527.975 234.504 527.519 234.36 527.135 234.072C526.767 233.8 526.583 233.4 526.583 232.872C526.583 232.536 526.687 232.232 526.895 231.96C527.119 231.688 527.407 231.552 527.759 231.552C528.143 231.536 528.415 231.656 528.575 231.912C528.751 232.168 528.839 232.432 528.839 232.704C528.839 232.752 528.839 232.8 528.839 232.848C528.839 232.896 528.831 232.952 528.815 233.016C528.863 233.048 528.935 233.056 529.031 233.04C529.207 233.024 529.399 232.928 529.607 232.752C529.815 232.576 530.007 232.328 530.183 232.008C530.375 231.656 530.591 231.168 530.831 230.544C531.071 229.92 531.335 229.2 531.623 228.384L527.855 220.512C527.423 219.616 527.119 218.92 526.943 218.424C526.783 217.912 526.679 217.512 526.631 217.224L525.479 217.272V216H530.783V216.984H530.735C530.079 217.048 529.719 217.296 529.655 217.728C529.607 218.16 529.759 218.752 530.111 219.504L532.751 225.312C533.055 224.496 533.359 223.608 533.663 222.648C533.983 221.688 534.311 220.704 534.647 219.696C534.759 219.392 534.871 219.072 534.983 218.736C535.111 218.384 535.239 218.064 535.367 217.776C535.511 217.488 535.647 217.288 535.775 217.176L534.215 217.272V216H538.151V216.984C537.591 217.176 537.151 217.528 536.831 218.04C536.527 218.552 536.231 219.2 535.943 219.984L532.943 228.432C532.479 229.76 532.047 230.872 531.647 231.768C531.247 232.68 530.799 233.36 530.303 233.808C529.823 234.272 529.223 234.504 528.503 234.504ZM550.555 228.384C549.579 228.384 548.707 228.144 547.939 227.664C547.187 227.168 546.587 226.464 546.139 225.552C545.707 224.64 545.491 223.568 545.491 222.336C545.491 221.024 545.747 219.864 546.259 218.856C546.771 217.848 547.491 217.056 548.419 216.48C549.347 215.904 550.403 215.616 551.587 215.616C552.083 215.616 552.555 215.68 553.003 215.808C553.467 215.92 553.851 216.056 554.155 216.216V213.48C554.155 213.24 554.163 212.976 554.179 212.688C554.195 212.384 554.219 212.072 554.251 211.752C553.963 211.768 553.667 211.784 553.363 211.8C553.059 211.816 552.787 211.824 552.547 211.824V210.552C553.267 210.552 553.835 210.52 554.251 210.456C554.683 210.376 555.011 210.288 555.235 210.192C555.475 210.096 555.651 209.992 555.763 209.88H556.651V225.024C556.651 225.264 556.643 225.536 556.627 225.84C556.611 226.144 556.587 226.464 556.555 226.8C556.843 226.784 557.131 226.768 557.419 226.752C557.707 226.736 557.971 226.728 558.211 226.728V228H554.395C554.363 227.776 554.331 227.568 554.299 227.376C554.283 227.184 554.267 226.992 554.251 226.8C553.771 227.312 553.219 227.704 552.595 227.976C551.971 228.248 551.291 228.384 550.555 228.384ZM551.539 226.872C552.035 226.872 552.515 226.736 552.979 226.464C553.459 226.192 553.851 225.848 554.155 225.432C554.155 225.224 554.155 225.008 554.155 224.784C554.155 224.56 554.155 224.32 554.155 224.064V217.536C553.851 217.312 553.491 217.144 553.075 217.032C552.675 216.904 552.259 216.84 551.827 216.84C551.043 216.84 550.379 217.072 549.835 217.536C549.307 217.984 548.915 218.6 548.659 219.384C548.403 220.168 548.283 221.064 548.299 222.072C548.331 222.936 548.467 223.736 548.707 224.472C548.947 225.208 549.299 225.792 549.763 226.224C550.243 226.656 550.835 226.872 551.539 226.872ZM565.835 228.384C564.699 228.384 563.675 228.128 562.763 227.616C561.851 227.104 561.123 226.392 560.579 225.48C560.051 224.552 559.787 223.488 559.787 222.288C559.787 220.992 560.051 219.848 560.579 218.856C561.123 217.848 561.851 217.056 562.763 216.48C563.675 215.904 564.691 215.616 565.811 215.616C566.947 215.616 567.971 215.88 568.883 216.408C569.795 216.92 570.515 217.64 571.043 218.568C571.587 219.48 571.859 220.536 571.859 221.736C571.859 223 571.595 224.136 571.067 225.144C570.539 226.152 569.819 226.944 568.907 227.52C568.011 228.096 566.987 228.384 565.835 228.384ZM566.003 227.184C566.771 227.168 567.371 226.928 567.803 226.464C568.251 226 568.571 225.408 568.763 224.688C568.955 223.952 569.051 223.192 569.051 222.408C569.051 221.72 568.987 221.048 568.859 220.392C568.747 219.72 568.563 219.112 568.307 218.568C568.051 218.024 567.715 217.592 567.299 217.272C566.883 216.936 566.379 216.776 565.787 216.792C565.035 216.792 564.419 217.024 563.939 217.488C563.475 217.952 563.131 218.552 562.907 219.288C562.699 220.008 562.595 220.776 562.595 221.592C562.595 222.536 562.715 223.432 562.955 224.28C563.195 225.128 563.563 225.824 564.059 226.368C564.571 226.912 565.219 227.184 566.003 227.184ZM579.373 234.504C577.965 234.504 576.829 234.344 575.965 234.024C575.117 233.72 574.501 233.32 574.117 232.824C573.749 232.344 573.565 231.832 573.565 231.288C573.565 230.856 573.661 230.456 573.853 230.088C574.061 229.72 574.333 229.392 574.669 229.104C575.005 228.832 575.381 228.616 575.797 228.456C575.237 228.28 574.813 228.032 574.525 227.712C574.237 227.376 574.093 226.968 574.093 226.488C574.093 225.976 574.293 225.472 574.693 224.976C575.109 224.48 575.701 224.144 576.469 223.968C575.749 223.648 575.173 223.184 574.741 222.576C574.309 221.968 574.085 221.248 574.069 220.416C574.053 219.456 574.293 218.616 574.789 217.896C575.301 217.176 575.949 216.616 576.733 216.216C577.533 215.816 578.365 215.616 579.229 215.616C579.725 215.616 580.237 215.688 580.765 215.832C581.293 215.96 581.773 216.168 582.205 216.456C582.381 215.992 582.613 215.568 582.901 215.184C583.189 214.8 583.525 214.496 583.909 214.272C584.309 214.048 584.725 213.936 585.157 213.936C585.621 213.936 585.973 214.056 586.213 214.296C586.453 214.536 586.573 214.856 586.573 215.256C586.573 215.384 586.533 215.544 586.453 215.736C586.389 215.912 586.269 216.064 586.093 216.192C585.917 216.32 585.677 216.384 585.373 216.384C585.117 216.384 584.885 216.304 584.677 216.144C584.485 215.968 584.365 215.76 584.317 215.52C583.981 215.584 583.701 215.784 583.477 216.12C583.269 216.44 583.133 216.768 583.069 217.104C583.485 217.472 583.805 217.912 584.029 218.424C584.269 218.92 584.389 219.456 584.389 220.032C584.389 220.944 584.141 221.752 583.645 222.456C583.165 223.16 582.533 223.712 581.749 224.112C580.965 224.512 580.117 224.712 579.205 224.712C578.933 224.712 578.677 224.696 578.437 224.664C578.197 224.616 577.933 224.592 577.645 224.592C577.133 224.592 576.709 224.712 576.373 224.952C576.053 225.192 575.933 225.48 576.013 225.816C576.093 226.168 576.429 226.4 577.021 226.512C577.613 226.624 578.469 226.704 579.589 226.752C580.821 226.8 581.877 226.952 582.757 227.208C583.653 227.448 584.341 227.824 584.821 228.336C585.317 228.848 585.565 229.544 585.565 230.424C585.565 231.08 585.381 231.664 585.013 232.176C584.661 232.688 584.181 233.112 583.573 233.448C582.981 233.8 582.317 234.064 581.581 234.24C580.845 234.416 580.109 234.504 579.373 234.504ZM579.589 233.328C580.885 233.328 581.885 233.088 582.589 232.608C583.309 232.128 583.669 231.584 583.669 230.976C583.669 230.464 583.493 230.064 583.141 229.776C582.789 229.504 582.293 229.304 581.653 229.176C581.029 229.064 580.293 229 579.445 228.984C579.029 228.952 578.605 228.928 578.173 228.912C577.741 228.896 577.341 228.856 576.973 228.792C576.605 229.048 576.317 229.36 576.109 229.728C575.917 230.096 575.813 230.48 575.797 230.88C575.797 231.616 576.141 232.208 576.829 232.656C577.517 233.104 578.437 233.328 579.589 233.328ZM579.277 223.584C579.821 223.584 580.269 223.448 580.621 223.176C580.989 222.888 581.261 222.512 581.437 222.048C581.629 221.568 581.725 221.048 581.725 220.488C581.725 219.832 581.629 219.216 581.437 218.64C581.245 218.064 580.965 217.6 580.597 217.248C580.229 216.896 579.757 216.72 579.181 216.72C578.397 216.72 577.789 217.032 577.357 217.656C576.925 218.28 576.709 219.032 576.709 219.912C576.709 220.616 576.805 221.248 576.997 221.808C577.205 222.352 577.501 222.784 577.885 223.104C578.269 223.424 578.733 223.584 579.277 223.584ZM588.967 228.384C588.535 228.384 588.167 228.224 587.863 227.904C587.575 227.584 587.431 227.192 587.431 226.728C587.431 226.28 587.583 225.896 587.887 225.576C588.207 225.24 588.567 225.072 588.967 225.072C589.399 225.072 589.759 225.24 590.047 225.576C590.335 225.896 590.479 226.28 590.479 226.728C590.479 227.192 590.327 227.584 590.023 227.904C589.735 228.224 589.383 228.384 588.967 228.384Z" fill="black"/>
</svg>
