<svg width="802" height="1015" viewBox="0 0 802 1015" fill="none" xmlns="http://www.w3.org/2000/svg">
<rect x="0.5" y="7.5" width="801" height="1007" fill="#D9D9D9" stroke="black"/>
<rect width="802" height="78" fill="#B1AEAE"/>
<rect y="78" width="790" height="347" fill="white"/>
<rect x="299" y="456" width="169" height="151" fill="#B0ABAB"/>
<rect x="183" y="761" width="400" height="230" fill="white"/>
<g clip-path="url(#clip0_15_33)">
<path d="M728 39H772" stroke="black" stroke-width="2" stroke-linecap="round" stroke-linejoin="round"/>
<path d="M728 23H772" stroke="black" stroke-width="2" stroke-linecap="round" stroke-linejoin="round"/>
<path d="M728 55H772" stroke="black" stroke-width="2" stroke-linecap="round" stroke-linejoin="round"/>
</g>
<g clip-path="url(#clip1_15_33)">
<path d="M481.469 174.438H285.531C280.612 174.438 276.625 178.425 276.625 183.344V343.656C276.625 348.575 280.612 352.562 285.531 352.562H481.469C486.388 352.562 490.375 348.575 490.375 343.656V183.344C490.375 178.425 486.388 174.438 481.469 174.438Z" stroke="black" stroke-width="2" stroke-linecap="round" stroke-linejoin="round"/>
<path d="M414.672 245.688C422.05 245.688 428.031 239.706 428.031 232.328C428.031 224.95 422.05 218.969 414.672 218.969C407.294 218.969 401.312 224.95 401.312 232.328C401.312 239.706 407.294 245.688 414.672 245.688Z" fill="black"/>
<path d="M404.997 303.578L433.598 275.011C435.268 273.342 437.532 272.405 439.893 272.405C442.254 272.405 444.519 273.342 446.189 275.011L490.375 319.231" stroke="black" stroke-width="2" stroke-linecap="round" stroke-linejoin="round"/>
<path d="M276.625 308.799L337.121 248.293C337.948 247.465 338.93 246.808 340.011 246.359C341.093 245.911 342.251 245.681 343.422 245.681C344.592 245.681 345.751 245.911 346.832 246.359C347.914 246.808 348.896 247.465 349.723 248.293L453.982 352.563" stroke="black" stroke-width="2" stroke-linecap="round" stroke-linejoin="round"/>
</g>
<g clip-path="url(#clip2_15_33)">
<rect width="169" height="169" transform="translate(299 796)" fill="white"/>
<path d="M441.594 827.688H325.406C322.489 827.688 320.125 830.052 320.125 832.969V928.031C320.125 930.948 322.489 933.312 325.406 933.312H441.594C444.511 933.312 446.875 930.948 446.875 928.031V832.969C446.875 830.052 444.511 827.688 441.594 827.688Z" stroke="black" stroke-width="2" stroke-linecap="round" stroke-linejoin="round"/>
<path d="M401.984 869.938C406.36 869.938 409.906 866.391 409.906 862.016C409.906 857.64 406.36 854.094 401.984 854.094C397.609 854.094 394.062 857.64 394.062 862.016C394.062 866.391 397.609 869.938 401.984 869.938Z" fill="black"/>
<path d="M396.248 904.266L413.207 887.326C414.197 886.336 415.54 885.78 416.94 885.78C418.34 885.78 419.683 886.336 420.673 887.326L446.875 913.547" stroke="black" stroke-width="2" stroke-linecap="round" stroke-linejoin="round"/>
<path d="M320.125 907.362L355.998 871.482C356.488 870.991 357.071 870.602 357.712 870.336C358.353 870.07 359.04 869.933 359.734 869.933C360.428 869.933 361.116 870.07 361.757 870.336C362.398 870.602 362.98 870.991 363.471 871.482L425.294 933.313" stroke="black" stroke-width="2" stroke-linecap="round" stroke-linejoin="round"/>
</g>
<g clip-path="url(#clip3_15_33)">
<path d="M225 876C231.627 876 237 870.627 237 864C237 857.373 231.627 852 225 852C218.373 852 213 857.373 213 864C213 870.627 218.373 876 225 876Z" stroke="black" stroke-width="2" stroke-linecap="round" stroke-linejoin="round"/>
<path d="M220 864H230" stroke="black" stroke-width="2" stroke-linecap="round" stroke-linejoin="round"/>
<path d="M224 860L220 864L224 868" stroke="black" stroke-width="2" stroke-linecap="round" stroke-linejoin="round"/>
</g>
<g clip-path="url(#clip4_15_33)">
<path d="M542 876C548.627 876 554 870.627 554 864C554 857.373 548.627 852 542 852C535.373 852 530 857.373 530 864C530 870.627 535.373 876 542 876Z" stroke="black" stroke-width="2" stroke-linecap="round" stroke-linejoin="round"/>
<path d="M537 864H547" stroke="black" stroke-width="2" stroke-linecap="round" stroke-linejoin="round"/>
<path d="M543 860L547 864L543 868" stroke="black" stroke-width="2" stroke-linecap="round" stroke-linejoin="round"/>
</g>
<path d="M371.078 548.923C369.962 549.097 368.821 548.999 367.751 548.636C366.681 548.273 365.715 547.656 364.935 546.839C364.156 546.022 363.585 545.028 363.273 543.942C362.961 542.857 362.916 541.712 363.142 540.605C363.368 539.498 363.859 538.463 364.572 537.587C365.285 536.711 366.2 536.021 367.238 535.575C368.276 535.129 369.406 534.941 370.532 535.027C371.659 535.113 372.748 535.47 373.706 536.068C374.09 536.316 374.548 536.425 375.003 536.377C375.458 536.328 375.883 536.125 376.206 535.801L393.801 518.206C394.125 517.883 394.328 517.458 394.377 517.003C394.425 516.548 394.316 516.09 394.068 515.706C393.47 514.748 393.113 513.659 393.027 512.532C392.941 511.406 393.129 510.276 393.575 509.238C394.021 508.2 394.711 507.285 395.587 506.572C396.463 505.859 397.498 505.368 398.605 505.142C399.712 504.916 400.857 504.961 401.942 505.273C403.028 505.585 404.022 506.156 404.839 506.935C405.656 507.715 406.273 508.681 406.636 509.751C406.999 510.821 407.097 511.962 406.923 513.078C408.039 512.904 409.181 513.003 410.251 513.366C411.321 513.729 412.287 514.345 413.066 515.163C413.846 515.98 414.416 516.974 414.729 518.059C415.041 519.145 415.086 520.29 414.86 521.397C414.634 522.503 414.143 523.539 413.43 524.415C412.717 525.291 411.802 525.981 410.764 526.427C409.726 526.873 408.596 527.06 407.469 526.975C406.343 526.889 405.254 526.531 404.296 525.933C403.911 525.685 403.454 525.576 402.999 525.625C402.544 525.674 402.119 525.877 401.796 526.201L384.201 543.796C383.877 544.119 383.674 544.544 383.625 544.999C383.576 545.454 383.685 545.911 383.933 546.296C384.531 547.254 384.889 548.343 384.975 549.469C385.06 550.596 384.873 551.726 384.427 552.764C383.981 553.802 383.291 554.717 382.415 555.43C381.539 556.143 380.503 556.634 379.397 556.86C378.29 557.086 377.145 557.041 376.059 556.729C374.974 556.416 373.98 555.846 373.163 555.066C372.345 554.287 371.729 553.321 371.366 552.251C371.003 551.181 370.904 550.039 371.078 548.923Z" stroke="black" stroke-width="2" stroke-linecap="round" stroke-linejoin="round"/>
<defs>
<clipPath id="clip0_15_33">
<rect width="64" height="64" fill="white" transform="translate(718 7)"/>
</clipPath>
<clipPath id="clip1_15_33">
<rect width="285" height="285" fill="white" transform="translate(241 121)"/>
</clipPath>
<clipPath id="clip2_15_33">
<rect width="169" height="169" fill="white" transform="translate(299 796)"/>
</clipPath>
<clipPath id="clip3_15_33">
<rect width="32" height="32" fill="white" transform="translate(209 848)"/>
</clipPath>
<clipPath id="clip4_15_33">
<rect width="32" height="32" fill="white" transform="translate(526 848)"/>
</clipPath>
</defs>
</svg>
